<svg width="26" height="25" viewBox="0 0 26 25"  xmlns="http://www.w3.org/2000/svg">
<path d="M11.6162 1.39332C12.0507 0.451301 13.3895 0.451302 13.8241 1.39332L16.5882 7.38595C16.7653 7.76988 17.1291 8.03423 17.549 8.08401L24.1025 8.86103C25.1327 8.98318 25.5464 10.2565 24.7848 10.9608L19.9396 15.4415C19.6292 15.7286 19.4902 16.1563 19.5726 16.571L20.8587 23.0439C21.0609 24.0614 19.9778 24.8483 19.0725 24.3416L13.3139 21.1182C12.945 20.9117 12.4953 20.9117 12.1263 21.1182L6.36771 24.3416C5.46248 24.8483 4.37933 24.0614 4.58151 23.0438L5.86766 16.571C5.95006 16.1563 5.81109 15.7286 5.50067 15.4415L0.655501 10.9608C-0.106139 10.2565 0.307587 8.98318 1.33777 8.86103L7.89127 8.08401C8.31113 8.03423 8.67497 7.76988 8.85206 7.38595L11.6162 1.39332Z" />
</svg>
