<svg width="42" height="42" viewBox="0 0 42 42" fill="none" xmlns="http://www.w3.org/2000/svg">
<path d="M0 21C0 28.1219 3.56221 34.4261 9.00002 38.2219L16.2 26.8001L21 13.5L23.9984 6.00001L21 0C9.42002 0 0 9.42002 0 21Z" fill="#565686"/>
<path d="M20.9997 0V13.5L25.8653 26.7017L32.9997 38.2219C38.4377 34.4261 41.9997 28.1219 41.9997 21C41.9997 9.42002 32.5797 0 20.9997 0Z" fill="#454572"/>
<path d="M15.0645 25.5774C11.4459 27.6464 8.99972 31.5422 8.99972 36V38.2218C12.4017 40.602 16.5417 42 20.9997 42L23.9982 35.4666L20.9997 28.6L15.0645 25.5774Z" fill="#FF8659"/>
<path d="M26.9397 25.571L20.9997 28.6V42.0001C25.4577 42.0001 29.5977 40.6021 32.9997 38.2218V36C32.9997 31.5862 30.6249 27.6774 26.9397 25.571Z" fill="#FF405C"/>
<path d="M13.5001 21.0001C13.5001 25.1357 16.8645 28.5001 21.0001 28.5001L22.8001 21.3001L21.0001 13.5001C16.8645 13.5001 13.5001 16.8645 13.5001 21.0001Z" fill="#FDD9C8"/>
<path d="M20.9997 13.5001V28.5001C25.1353 28.5001 28.4997 25.1357 28.4997 21.0001C28.4997 16.8645 25.1353 13.5001 20.9997 13.5001Z" fill="#FCBBAF"/>
</svg>
