<svg width="100" height="100" viewBox="0 0 100 100" fill="none" xmlns="http://www.w3.org/2000/svg">
<path d="M80.7475 54.3541C77.1082 52.1654 73.4861 52.9007 69.8385 56.5484L61.7188 64.7701L55.8594 70.7031H33.718C40.0098 66.9548 52.5346 61.0554 49.6775 55.5916C48.7438 53.8056 47.0297 53.1039 44.8635 53.1254C38.5123 53.189 28.276 59.9363 22.4369 63.3445C18.4543 65.6677 17.1125 68.8892 15.2529 73.3523C13.6621 77.166 11.4871 78.9828 7.08105 84.7707L19.3291 92.4925C23.14 87.955 28.9199 85.3515 34.848 85.3515H47.0246C52 85.3515 56.7664 83.2257 60.0938 79.5293L61.7188 77.9511L81.4025 58.8345C82.6525 57.457 82.3131 55.2982 80.7475 54.3541Z" fill="#FFC9D0"/>
<path d="M80.7475 54.3541C77.1082 52.1654 73.4861 52.9007 69.8385 56.5484L61.7188 64.7701V77.9511L81.4025 58.8345C82.6525 57.457 82.3131 55.2982 80.7475 54.3541Z" fill="#FFA7B3"/>
<path d="M100 2.92969V11.7188L94.1406 17.5781H29.4922L23.6328 11.7188V2.92969C23.6328 1.28887 24.9217 0 26.5625 0H55.8594L61.7188 5.85938L67.5781 0H97.0703C98.7111 0 100 1.28887 100 2.92969Z" fill="#61729B"/>
<path d="M100 2.92969V11.7188L94.1406 17.5781H61.7188V5.85938L67.5781 0H97.0703C98.7111 0 100 1.28887 100 2.92969Z" fill="#47568C"/>
<path d="M100 11.7188V50.1953C100 51.8357 98.7111 53.125 97.0703 53.125H67.5781L61.7188 47.2656L55.8594 53.125H26.5625C24.9217 53.125 23.6328 51.8357 23.6328 50.1953V11.7188H100Z" fill="#6B9DFF"/>
<path d="M100 11.7188V50.1953C100 51.8357 98.7111 53.125 97.0703 53.125H67.5781L61.7188 47.2656V11.7188H100Z" fill="#4579FF"/>
<path d="M85.1562 35.3516H79.2969C77.6775 35.3516 76.3672 34.0412 76.3672 32.4219C76.3672 30.8025 77.6775 29.4922 79.2969 29.4922H85.1562C86.7756 29.4922 88.0859 30.8025 88.0859 32.4219C88.0859 34.0412 86.7756 35.3516 85.1562 35.3516Z" fill="#D5E8FE"/>
<path d="M44.1406 35.3516H38.2812C36.6619 35.3516 35.3516 34.0412 35.3516 32.4219C35.3516 30.8025 36.6619 29.4922 38.2812 29.4922H44.1406C45.76 29.4922 47.0703 30.8025 47.0703 32.4219C47.0703 34.0412 45.76 35.3516 44.1406 35.3516Z" fill="#EDF5FF"/>
<path d="M13.2864 99.1416L0.858252 86.7135C-0.286084 85.5691 -0.286084 83.715 0.858252 82.5707L5.50454 77.9244C6.64888 76.7801 8.50298 76.7801 9.64731 77.9244L22.0756 90.3527C23.22 91.4971 23.22 93.3512 22.0756 94.4955L17.4293 99.1418C16.2848 100.286 14.4309 100.286 13.2864 99.1416Z" fill="#5F90EE"/>
<path d="M55.8594 0H67.5781V53.125H55.8594V0Z" fill="#A3C3EB"/>
<path d="M61.7188 0H67.5781V53.125H61.7188V0Z" fill="#83A8D7"/>
</svg>
