<svg width="80" height="80" viewBox="0 0 80 80" fill="none" xmlns="http://www.w3.org/2000/svg">
<circle cx="40" cy="40" r="39.5" fill="white" fill-opacity="0.1" stroke="white"/>
<path d="M24.094 45L21.247 35.718H22.872L25.16 43.466H25.784L28.072 35.718H29.684L26.837 45H24.094ZM32.1608 35.718H33.7208V45H32.1608V35.718ZM38.644 43.583H43.922V45H37.084V35.718H43.753V37.135H38.644V39.527H42.687V40.918H38.644V43.583ZM50.4114 38.695H52.4394L53.8694 43.18H54.1814L55.0784 35.718H56.5604L55.4164 45H53.0504L51.5814 40.177H51.2694L49.7874 45H47.4214L46.2904 35.718H47.7984L48.6824 43.18H48.9944L50.4114 38.695Z" fill="white"/>
</svg>
