<svg width="194" height="64" viewBox="0 0 194 64" fill="none" xmlns="http://www.w3.org/2000/svg">
<rect width="194" height="63.3773" fill="#D6EAFA"/>
<path d="M15.9714 22.5128C20.3147 17.2331 24.9467 11.6024 26.4815 5.34656C28.0163 11.6024 32.6483 17.2331 36.9916 22.5128L37.0229 22.551L37.2527 22.3619L37.0229 22.551C39.3849 25.4221 41.662 28.1909 43.3508 30.9232C45.0396 33.6556 46.1195 36.3201 46.1195 38.9786C46.1195 49.7394 37.2479 58.4679 26.4815 58.4679C15.7151 58.4679 6.84344 49.7394 6.84344 38.9786C6.84344 36.3201 7.92332 33.6556 9.61214 30.9232C11.3009 28.1909 13.5781 25.4221 15.94 22.551L15.7103 22.3619L15.94 22.551L15.9714 22.5128Z" fill="#8FC1E9" />
<path d="M27.3744 51.93C26.1778 52.3955 24.8744 52.6512 23.5107 52.6512C17.6814 52.6512 12.956 47.9802 12.956 42.218C12.956 41.8271 12.9777 41.4413 13.0201 41.0615C12.6813 42.0278 12.4971 43.0656 12.4971 44.1459C12.4971 49.3443 16.7603 53.5585 22.0193 53.5585C24.0048 53.5585 25.8484 52.9577 27.3744 51.93Z" fill="white"/>
<path d="M55.9077 24.1121V43.1504H51.985V24.1121H55.9077ZM67.3098 24.1121L59.7651 33.5136L55.4109 38.1947L54.7048 34.4812L57.6468 30.4538L62.4979 24.1121H67.3098ZM62.851 43.1504L57.2415 34.3504L60.1443 31.9183L67.4928 43.1504H62.851ZM83.6587 40.0907V43.1504H74.0741V40.0907H83.6587ZM75.3425 24.1121V43.1504H71.4198V24.1121H75.3425ZM92.489 24.1121V43.1504H88.5793V24.1121H92.489ZM114.068 24.1121V43.1504H110.145L102.496 30.3885V43.1504H98.5734V24.1121H102.496L110.159 36.8871V24.1121H114.068ZM124.062 24.1121V43.1504H120.153V24.1121H124.062ZM134.069 24.1121V43.1504H130.147V24.1121H134.069ZM145.471 24.1121L137.927 33.5136L133.572 38.1947L132.866 34.4812L135.808 30.4538L140.66 24.1121H145.471ZM141.013 43.1504L135.403 34.3504L138.306 31.9183L145.654 43.1504H141.013ZM157.322 27.368L152.144 43.1504H147.973L155.047 24.1121H157.701L157.322 27.368ZM161.624 43.1504L156.433 27.368L156.015 24.1121H158.695L165.808 43.1504H161.624ZM161.389 36.0633V39.1361H151.334V36.0633H161.389Z" fill="#303473"/>
<path d="M55.9077 24.1121H56.5028V23.517H55.9077V24.1121ZM55.9077 43.1504V43.7455H56.5028V43.1504H55.9077ZM51.985 43.1504H51.3899V43.7455H51.985V43.1504ZM51.985 24.1121V23.517H51.3899V24.1121H51.985ZM67.3098 24.1121L67.7739 24.4846L68.5504 23.517H67.3098V24.1121ZM59.7651 33.5136L60.2008 33.9189L60.2156 33.903L60.2292 33.886L59.7651 33.5136ZM55.4109 38.1947L54.8262 38.3058L55.0458 39.4608L55.8466 38.6L55.4109 38.1947ZM54.7048 34.4812L54.2242 34.1301L54.0719 34.3386L54.1201 34.5923L54.7048 34.4812ZM57.6468 30.4538L57.174 30.0922L57.1663 30.1028L57.6468 30.4538ZM62.4979 24.1121V23.517H62.2039L62.0252 23.7505L62.4979 24.1121ZM62.851 43.1504L62.3491 43.4703L62.5246 43.7455H62.851V43.1504ZM57.2415 34.3504L56.8593 33.8943L56.4588 34.2298L56.7396 34.6703L57.2415 34.3504ZM60.1443 31.9183L60.6423 31.5925L60.2755 31.032L59.7621 31.4622L60.1443 31.9183ZM67.4928 43.1504V43.7455H68.5933L67.9908 42.8246L67.4928 43.1504ZM55.3126 24.1121V43.1504H56.5028V24.1121H55.3126ZM55.9077 42.5553H51.985V43.7455H55.9077V42.5553ZM52.5801 43.1504V24.1121H51.3899V43.1504H52.5801ZM51.985 24.7072H55.9077V23.517H51.985V24.7072ZM66.8457 23.7396L59.301 33.1411L60.2292 33.886L67.7739 24.4846L66.8457 23.7396ZM59.3293 33.1083L54.9751 37.7894L55.8466 38.6L60.2008 33.9189L59.3293 33.1083ZM55.9955 38.0835L55.2894 34.37L54.1201 34.5923L54.8262 38.3058L55.9955 38.0835ZM55.1853 34.8322L58.1273 30.8049L57.1663 30.1028L54.2242 34.1301L55.1853 34.8322ZM58.1195 30.8154L62.9706 24.4737L62.0252 23.7505L57.1741 30.0923L58.1195 30.8154ZM62.4979 24.7072H67.3098V23.517H62.4979V24.7072ZM63.3528 42.8305L57.7433 34.0305L56.7396 34.6703L62.3491 43.4703L63.3528 42.8305ZM57.6236 34.8066L60.5265 32.3745L59.7621 31.4622L56.8593 33.8943L57.6236 34.8066ZM59.6463 32.2441L66.9949 43.4762L67.9908 42.8246L60.6423 31.5925L59.6463 32.2441ZM67.4928 42.5553H62.851V43.7455H67.4928V42.5553ZM83.6587 40.0907H84.2538V39.4956H83.6587V40.0907ZM83.6587 43.1504V43.7455H84.2538V43.1504H83.6587ZM74.0741 43.1504H73.479V43.7455H74.0741V43.1504ZM74.0741 40.0907V39.4956H73.479V40.0907H74.0741ZM75.3425 24.1121H75.9376V23.517H75.3425V24.1121ZM75.3425 43.1504V43.7455H75.9376V43.1504H75.3425ZM71.4198 43.1504H70.8247V43.7455H71.4198V43.1504ZM71.4198 24.1121V23.517H70.8247V24.1121H71.4198ZM83.0636 40.0907V43.1504H84.2538V40.0907H83.0636ZM83.6587 42.5553H74.0741V43.7455H83.6587V42.5553ZM74.6692 43.1504V40.0907H73.479V43.1504H74.6692ZM74.0741 40.6858H83.6587V39.4956H74.0741V40.6858ZM74.7474 24.1121V43.1504H75.9376V24.1121H74.7474ZM75.3425 42.5553H71.4198V43.7455H75.3425V42.5553ZM72.0148 43.1504V24.1121H70.8247V43.1504H72.0148ZM71.4198 24.7072H75.3425V23.517H71.4198V24.7072ZM92.489 24.1121H93.0841V23.517H92.489V24.1121ZM92.489 43.1504V43.7455H93.0841V43.1504H92.489ZM88.5793 43.1504H87.9842V43.7455H88.5793V43.1504ZM88.5793 24.1121V23.517H87.9842V24.1121H88.5793ZM91.8939 24.1121V43.1504H93.0841V24.1121H91.8939ZM92.489 42.5553H88.5793V43.7455H92.489V42.5553ZM89.1744 43.1504V24.1121H87.9842V43.1504H89.1744ZM88.5793 24.7072H92.489V23.517H88.5793V24.7072ZM114.068 24.1121H114.663V23.517H114.068V24.1121ZM114.068 43.1504V43.7455H114.663V43.1504H114.068ZM110.145 43.1504L109.635 43.4563L109.808 43.7455H110.145V43.1504ZM102.496 30.3885L103.007 30.0825L101.901 28.2381V30.3885H102.496ZM102.496 43.1504V43.7455H103.091V43.1504H102.496ZM98.5734 43.1504H97.9783V43.7455H98.5734V43.1504ZM98.5734 24.1121V23.517H97.9783V24.1121H98.5734ZM102.496 24.1121L103.006 23.806L102.833 23.517H102.496V24.1121ZM110.159 36.8871L109.648 37.1932L110.754 39.0362V36.8871H110.159ZM110.159 24.1121V23.517H109.563V24.1121H110.159ZM113.473 24.1121V43.1504H114.663V24.1121H113.473ZM114.068 42.5553H110.145V43.7455H114.068V42.5553ZM110.656 42.8444L103.007 30.0825L101.986 30.6944L109.635 43.4563L110.656 42.8444ZM101.901 30.3885V43.1504H103.091V30.3885H101.901ZM102.496 42.5553H98.5734V43.7455H102.496V42.5553ZM99.1685 43.1504V24.1121H97.9783V43.1504H99.1685ZM98.5734 24.7072H102.496V23.517H98.5734V24.7072ZM101.986 24.4182L109.648 37.1932L110.669 36.581L103.006 23.806L101.986 24.4182ZM110.754 36.8871V24.1121H109.563V36.8871H110.754ZM110.159 24.7072H114.068V23.517H110.159V24.7072ZM124.062 24.1121H124.657V23.517H124.062V24.1121ZM124.062 43.1504V43.7455H124.657V43.1504H124.062ZM120.153 43.1504H119.557V43.7455H120.153V43.1504ZM120.153 24.1121V23.517H119.557V24.1121H120.153ZM123.467 24.1121V43.1504H124.657V24.1121H123.467ZM124.062 42.5553H120.153V43.7455H124.062V42.5553ZM120.748 43.1504V24.1121H119.557V43.1504H120.748ZM120.153 24.7072H124.062V23.517H120.153V24.7072ZM134.069 24.1121H134.664V23.517H134.069V24.1121ZM134.069 43.1504V43.7455H134.664V43.1504H134.069ZM130.147 43.1504H129.552V43.7455H130.147V43.1504ZM130.147 24.1121V23.517H129.552V24.1121H130.147ZM145.471 24.1121L145.936 24.4846L146.712 23.517H145.471V24.1121ZM137.927 33.5136L138.362 33.9189L138.377 33.903L138.391 33.886L137.927 33.5136ZM133.572 38.1947L132.988 38.3058L133.207 39.4608L134.008 38.6L133.572 38.1947ZM132.866 34.4812L132.386 34.1301L132.234 34.3386L132.282 34.5923L132.866 34.4812ZM135.808 30.4538L135.336 30.0922L135.328 30.1028L135.808 30.4538ZM140.66 24.1121V23.517H140.366L140.187 23.7505L140.66 24.1121ZM141.013 43.1504L140.511 43.4703L140.686 43.7455H141.013V43.1504ZM135.403 34.3504L135.021 33.8943L134.62 34.2298L134.901 34.6703L135.403 34.3504ZM138.306 31.9183L138.804 31.5925L138.437 31.032L137.924 31.4622L138.306 31.9183ZM145.654 43.1504V43.7455H146.755L146.152 42.8246L145.654 43.1504ZM133.474 24.1121V43.1504H134.664V24.1121H133.474ZM134.069 42.5553H130.147V43.7455H134.069V42.5553ZM130.742 43.1504V24.1121H129.552V43.1504H130.742ZM130.147 24.7072H134.069V23.517H130.147V24.7072ZM145.007 23.7396L137.463 33.1411L138.391 33.886L145.936 24.4846L145.007 23.7396ZM137.491 33.1083L133.137 37.7894L134.008 38.6L138.362 33.9189L137.491 33.1083ZM134.157 38.0835L133.451 34.37L132.282 34.5923L132.988 38.3058L134.157 38.0835ZM133.347 34.8322L136.289 30.8049L135.328 30.1028L132.386 34.1301L133.347 34.8322ZM136.281 30.8154L141.132 24.4737L140.187 23.7505L135.336 30.0923L136.281 30.8154ZM140.66 24.7072H145.471V23.517H140.66V24.7072ZM141.514 42.8305L135.905 34.0305L134.901 34.6703L140.511 43.4703L141.514 42.8305ZM135.785 34.8066L138.688 32.3745L137.924 31.4622L135.021 33.8943L135.785 34.8066ZM137.808 32.2441L145.156 43.4762L146.152 42.8246L138.804 31.5925L137.808 32.2441ZM145.654 42.5553H141.013V43.7455H145.654V42.5553ZM157.322 27.368L157.888 27.5535L157.906 27.4964L157.913 27.4368L157.322 27.368ZM152.144 43.1504V43.7455H152.575L152.71 43.3359L152.144 43.1504ZM147.973 43.1504L147.415 42.9431L147.117 43.7455H147.973V43.1504ZM155.047 24.1121V23.517H154.633L154.489 23.9048L155.047 24.1121ZM157.701 24.1121L158.293 24.1809L158.37 23.517H157.701V24.1121ZM161.624 43.1504L161.059 43.3363L161.193 43.7455H161.624V43.1504ZM156.433 27.368L155.843 27.4438L155.85 27.5L155.868 27.5539L156.433 27.368ZM156.015 24.1121V23.517H155.338L155.424 24.1879L156.015 24.1121ZM158.695 24.1121L159.253 23.9038L159.108 23.517H158.695V24.1121ZM165.808 43.1504V43.7455H166.666L166.366 42.9421L165.808 43.1504ZM161.389 36.0633H161.984V35.4682H161.389V36.0633ZM161.389 39.1361V39.7312H161.984V39.1361H161.389ZM151.334 39.1361H150.738V39.7312H151.334V39.1361ZM151.334 36.0633V35.4682H150.738V36.0633H151.334ZM156.757 27.1824L151.579 42.9649L152.71 43.3359L157.888 27.5535L156.757 27.1824ZM152.144 42.5553H147.973V43.7455H152.144V42.5553ZM148.531 43.3577L155.605 24.3194L154.489 23.9048L147.415 42.9431L148.531 43.3577ZM155.047 24.7072H157.701V23.517H155.047V24.7072ZM157.11 24.0433L156.731 27.2991L157.913 27.4368L158.293 24.1809L157.11 24.0433ZM162.189 42.9645L156.998 27.182L155.868 27.5539L161.059 43.3363L162.189 42.9645ZM157.023 27.2921L156.605 24.0362L155.424 24.1879L155.843 27.4438L157.023 27.2921ZM156.015 24.7072H158.695V23.517H156.015V24.7072ZM158.138 24.3204L165.251 43.3587L166.366 42.9421L159.253 23.9038L158.138 24.3204ZM165.808 42.5553H161.624V43.7455H165.808V42.5553ZM160.794 36.0633V39.1361H161.984V36.0633H160.794ZM161.389 38.541H151.334V39.7312H161.389V38.541ZM151.929 39.1361V36.0633H150.738V39.1361H151.929ZM151.334 36.6584H161.389V35.4682H151.334V36.6584Z" fill="white"/>
<path d="M185.417 33.4613V34.9388H172.367V33.4613H185.417ZM179.624 27.381V41.2413H178.055V27.381H179.624Z" fill="#303473"/>
<path d="M185.417 33.4613H186.012V32.8662H185.417V33.4613ZM185.417 34.9388V35.5339H186.012V34.9388H185.417ZM172.367 34.9388H171.772V35.5339H172.367V34.9388ZM172.367 33.4613V32.8662H171.772V33.4613H172.367ZM179.624 27.381H180.22V26.7859H179.624V27.381ZM179.624 41.2413V41.8364H180.22V41.2413H179.624ZM178.055 41.2413H177.46V41.8364H178.055V41.2413ZM178.055 27.381V26.7859H177.46V27.381H178.055ZM184.822 33.4613V34.9388H186.012V33.4613H184.822ZM185.417 34.3437H172.367V35.5339H185.417V34.3437ZM172.962 34.9388V33.4613H171.772V34.9388H172.962ZM172.367 34.0563H185.417V32.8662H172.367V34.0563ZM179.029 27.381V41.2413H180.22V27.381H179.029ZM179.624 40.6462H178.055V41.8364H179.624V40.6462ZM178.65 41.2413V27.381H177.46V41.2413H178.65ZM178.055 27.9761H179.624V26.7859H178.055V27.9761Z" fill="white"/>
</svg>
