<svg width="97" height="20" viewBox="0 0 97 20" fill="none" xmlns="http://www.w3.org/2000/svg">
<path d="M9.53748 20.0008H6.62153L0.0308838 -0.0290527H4.06263L8.07951 13.0306L12.0964 -0.0290527H16.1579L9.53748 20.0008Z" fill="white"/>
<path d="M29.71 20.0004L28.5347 16.4482H21.4382L20.2331 20.0004H16.1716L23.4318 -0.0294189H26.4816L33.7715 20.0004H29.71ZM25.0534 5.88103L22.5242 13.1646H27.4933L25.0534 5.88103Z" fill="white"/>
<path d="M37.8479 20.0004V-0.0294189H41.7457V16.5079H50.806V20.0004H37.8479Z" fill="white"/>
<path d="M54.8674 20.0004V-0.0294189H58.7653V20.0004H54.8674Z" fill="white"/>
<path d="M75.6064 17.8512C74.2079 19.284 72.378 20.0154 70.2208 20.0154C68.0636 20.0154 66.2039 19.2691 64.8055 17.8512C62.7078 15.7168 62.8417 12.4631 62.8417 10.2691V9.19446C62.8417 5.26909 63.2582 3.687 64.8055 2.13476C66.2039 0.71685 68.0636 -0.0294189 70.2208 -0.0294189C72.3483 -0.0294189 74.2079 0.71685 75.6064 2.13476C77.0049 3.55267 77.5999 5.43327 77.5999 8.61238V10.0004C77.5851 12.8064 77.7339 15.6571 75.6064 17.8512ZM72.7053 4.44819C72.0954 3.76163 71.2176 3.40342 70.2059 3.40342C69.1943 3.40342 68.3016 3.76163 67.6768 4.44819C66.7842 5.41834 66.7247 7.26909 66.7247 9.70193C66.7247 12.1049 66.6056 14.4631 67.6768 15.5079C68.3463 16.1646 69.1943 16.5527 70.2059 16.5527C71.2176 16.5527 72.0805 16.1945 72.7053 15.5079C73.5236 14.5975 73.6872 13.6273 73.6872 9.61237C73.6872 6.38849 73.4938 5.31387 72.7053 4.44819Z" fill="white"/>
<path d="M93.4741 19.9851L85.5593 7.68654V19.9851H81.6615V-0.0447998H85.1428L93.0575 12.2239V-0.0447998H96.9554V19.9851H93.4741Z" fill="white"/>
</svg>
