<svg width="0" height="0" class="hidden">
   <symbol  xmlns="http://www.w3.org/2000/svg" viewBox="0 0 29 29" id="search">
    <path fill-rule="evenodd" clip-rule="evenodd" d="M18.9531 22.47C16.9914 23.8669 14.5917 24.6885 12 24.6885C5.37258 24.6885 0 19.3159 0 12.6885C0 6.06106 5.37258 0.688477 12 0.688477C18.6274 0.688477 24 6.06106 24 12.6885C24 15.2801 23.1784 17.6799 21.7815 19.6415L27.5874 25.4475C28.3685 26.2285 28.3685 27.4949 27.5874 28.2759C26.8064 29.0569 25.54 29.0569 24.759 28.2759L18.9531 22.47ZM20 12.6885C20 17.1068 16.4183 20.6885 12 20.6885C7.58172 20.6885 4 17.1068 4 12.6885C4 8.2702 7.58172 4.68848 12 4.68848C16.4183 4.68848 20 8.2702 20 12.6885Z" ></path>
  </symbol>
  <symbol   xmlns="http://www.w3.org/2000/svg" viewBox="0 0 16 16" id="list">
    <path fill-rule="evenodd" clip-rule="evenodd" d="M2.5 11.5C2.5 11.2239 2.72386 11 3 11H13C13.2761 11 13.5 11.2239 13.5 11.5C13.5 11.7761 13.2761 12 13 12H3C2.72386 12 2.5 11.7761 2.5 11.5Z" ></path>
    <path fill-rule="evenodd" clip-rule="evenodd" d="M2.5 7.5C2.5 7.22386 2.72386 7 3 7H13C13.2761 7 13.5 7.22386 13.5 7.5C13.5 7.77614 13.2761 8 13 8H3C2.72386 8 2.5 7.77614 2.5 7.5Z" ></path>
    <path fill-rule="evenodd" clip-rule="evenodd" d="M2.5 3.5C2.5 3.22386 2.72386 3 3 3H13C13.2761 3 13.5 3.22386 13.5 3.5C13.5 3.77614 13.2761 4 13 4H3C2.72386 4 2.5 3.77614 2.5 3.5Z" ></path>
  </symbol>
   <symbol  xmlns="http://www.w3.org/2000/svg" viewBox="0 0 16 16" id="x">
    <path d="M2.14645 2.85355C1.95118 2.65829 1.95118 2.34171 2.14645 2.14645C2.34171 1.95118 2.65829 1.95118 2.85355 2.14645L8 7.29289L13.1464 2.14645C13.3417 1.95118 13.6583 1.95118 13.8536 2.14645C14.0488 2.34171 14.0488 2.65829 13.8536 2.85355L8.70711 8L13.8536 13.1464C14.0488 13.3417 14.0488 13.6583 13.8536 13.8536C13.6583 14.0488 13.3417 14.0488 13.1464 13.8536L8 8.70711L2.85355 13.8536C2.65829 14.0488 2.34171 14.0488 2.14645 13.8536C1.95119 13.6583 1.95119 13.3417 2.14645 13.1464L7.29289 8L2.14645 2.85355Z" ></path>
  </symbol>
  <symbol  xmlns="http://www.w3.org/2000/svg" viewBox="0 0 16 16" id="chevron-left">
    <path fill-rule="evenodd" clip-rule="evenodd" d="M11.3536 1.64645C11.5488 1.84171 11.5488 2.15829 11.3536 2.35355L5.70711 8L11.3536 13.6464C11.5488 13.8417 11.5488 14.1583 11.3536 14.3536C11.1583 14.5488 10.8417 14.5488 10.6464 14.3536L4.64645 8.35355C4.45118 8.15829 4.45118 7.84171 4.64645 7.64645L10.6464 1.64645C10.8417 1.45118 11.1583 1.45118 11.3536 1.64645Z" ></path>
  </symbol>
  <symbol  xmlns="http://www.w3.org/2000/svg" viewBox="0 0 16 16" id="chevron-right">
    <path fill-rule="evenodd" clip-rule="evenodd" d="M4.64645 1.64645C4.84171 1.45118 5.15829 1.45118 5.35355 1.64645L11.3536 7.64645C11.5488 7.84171 11.5488 8.15829 11.3536 8.35355L5.35355 14.3536C5.15829 14.5488 4.84171 14.5488 4.64645 14.3536C4.45118 14.1583 4.45118 13.8417 4.64645 13.6464L10.2929 8L4.64645 2.35355C4.45118 2.15829 4.45118 1.84171 4.64645 1.64645Z" ></path>
  </symbol>
  <symbol  xmlns="http://www.w3.org/2000/svg" viewBox="0 0 16 16" id="chevron-down">
    <path fill-rule="evenodd" clip-rule="evenodd" d="M1.64645 4.64645C1.84171 4.45118 2.15829 4.45118 2.35355 4.64645L8 10.2929L13.6464 4.64645C13.8417 4.45118 14.1583 4.45118 14.3536 4.64645C14.5488 4.84171 14.5488 5.15829 14.3536 5.35355L8.35355 11.3536C8.15829 11.5488 7.84171 11.5488 7.64645 11.3536L1.64645 5.35355C1.45118 5.15829 1.45118 4.84171 1.64645 4.64645Z" ></path>
  </symbol>
  <symbol  xmlns="http://www.w3.org/2000/svg" viewBox="0 0 30 45" id="sheet">
    <path d="M25.7108 44.0018C25.255 44.0018 24.7992 44.0018 24.3331 44.0018C23.8773 44.0018 23.4111 44.0018 22.9553 44.0018H11.5499C8.59758 44.0018 5.65559 44.0018 2.70324 44.0018C0.880037 43.9912 -0.000488281 43.0729 -0.000488281 41.1938C-0.000488281 28.3814 -0.000488281 15.5689 -0.000488281 2.7565C-0.000488281 0.941409 0.8386 0.0445391 2.57893 0.00183105H21.4843C22.2095 0.0552162 22.7999 0.343496 23.349 0.909378C25.4104 3.06614 27.099 4.80649 28.6632 6.38669C29.3987 7.1234 29.9166 7.72132 29.9995 8.58616V41.5354C29.9684 42.9875 29.0154 43.9698 27.6273 43.9805C27.0472 43.9912 26.4463 44.0018 25.7108 44.0018ZM2.63073 1.01615C1.44979 1.01615 0.993987 1.49661 0.993987 2.72447C0.993987 15.5689 0.993987 28.4134 0.993987 41.2578C0.993987 42.4964 1.47051 42.9768 2.68252 42.9768C10.8973 42.9768 19.1121 42.9768 27.3269 42.9768C28.5492 42.9768 29.005 42.507 29.005 41.2578C29.005 32.7696 29.005 8.49006 29.005 8.49006H28.5907C28.1142 8.49006 27.648 8.49006 27.1818 8.49006C26.726 8.49006 26.2806 8.49006 25.8455 8.49006C25.2758 8.49006 24.7164 8.49006 24.157 8.49006C22.7274 8.47939 21.764 7.48642 21.7537 6.02367C21.7433 5.10545 21.7537 4.16587 21.7537 3.25832C21.7537 2.8526 21.7537 2.43619 21.7537 2.03046V1.05886L9.99951 1.00183L10.0271 8.86376L7.28197 7.18747L3.99951 9.00183V1.00183L3.17976 1.01615C2.98294 1.01615 2.80683 1.01615 2.63073 1.01615ZM22.7481 2.88463C22.7481 3.22629 22.7481 3.56796 22.7481 3.88827C22.7481 4.67837 22.7378 5.41508 22.7585 6.16247C22.7792 6.93122 23.3179 7.44371 24.1363 7.46507C24.3849 7.47575 24.6438 7.47575 24.9753 7.47575C25.1618 7.47575 25.3379 7.47575 25.5244 7.47575C25.7108 7.47575 25.8869 7.47575 26.0734 7.47575H28.1867L22.7585 1.84896V2.88463H22.7481ZM4.99951 7.00183L7.30269 5.99164L9.0223 7.04867L8.99951 1.00183H4.99951V7.00183Z" ></path>
    <path d="M4.99951 32.0018V23.0018H24.9995V32.0018H4.99951ZM5.92305 30.8868H24.0363V24.1055H5.92305V30.8868Z" ></path>
    <path d="M24.9995 12.0018H4.99951V13.0018H24.9995V12.0018Z" ></path>
    <path d="M24.9995 16.0018H4.99951V17.0018H24.9995V16.0018Z" ></path>
    <path d="M24.9995 20.0018H4.99951V21.0018H24.9995V20.0018Z" ></path>
    <path d="M24.9995 38.002H4.99951V39.002H24.9995V38.002Z" ></path>
    <path d="M13.9995 34.002H4.99951V35.002H13.9995V34.002Z" ></path>
  </symbol>

  <!-- =================== -->
  <symbol  xmlns="http://www.w3.org/2000/svg" viewBox="0 0 24 25" id="wa">
    <path d="M13.2458 14.72C11.7999 14.0161 10.7107 12.918 9.79062 11.6228C9.86413 11.5232 9.93765 11.4273 10.0098 11.3331C10.2233 11.0543 10.4249 10.7912 10.5793 10.4965C10.692 10.2807 10.7295 9.96158 10.6544 9.74572C10.3727 8.96673 10.0535 8.20651 9.68734 7.46507C9.57467 7.23982 9.27422 6.94887 9.04889 6.93949C8.24143 6.91133 7.26498 7.08027 6.76736 7.94373C6.18524 8.95735 6.02563 10.0461 6.48569 11.0972C6.89881 12.0264 7.44337 12.918 8.04426 13.7439C9.47139 15.6867 11.3116 17.0851 13.6683 17.7421C14.4476 17.9579 15.2362 18.155 16.0625 17.9861C17.3394 17.7327 18.2313 16.7566 18.3252 15.4708C18.3534 15.0578 18.2313 14.7481 17.8276 14.5604C17.3746 14.3546 16.9253 14.1414 16.475 13.9277C16.2067 13.8004 15.9381 13.673 15.6681 13.5468C15.2268 13.3497 14.8513 13.4154 14.5602 13.8284C14.4807 13.9413 14.3919 14.0486 14.3029 14.1561C14.1922 14.29 14.0812 14.4241 13.9875 14.5698C13.7809 14.8795 13.565 14.8795 13.2458 14.72Z" ></path>
    <path fill-rule="evenodd" clip-rule="evenodd" d="M6.92698 22.9322C8.57945 23.7206 10.307 24.1241 12.1379 24.1992C12.4027 24.1645 12.6685 24.1352 12.9347 24.1058C13.4614 24.0476 13.9894 23.9892 14.5133 23.8895C20.5692 22.7632 24.7942 16.8223 23.8741 10.7312C22.8695 4.10509 16.4756 -0.390506 9.90329 0.914063C2.06348 2.47204 -1.955 10.9564 1.7912 18.0142C1.89448 18.2113 1.91326 18.5023 1.84754 18.7088C1.47769 19.8414 1.09683 20.9703 0.716428 22.0978C0.48845 22.7736 0.260638 23.4489 0.0354626 24.1241C-0.0114823 24.2743 -0.0208708 24.5371 0.0636299 24.6215C0.148131 24.7154 0.401633 24.6966 0.561246 24.6497C1.37714 24.3969 2.19127 24.1387 3.00516 23.8807C4.06445 23.5448 5.12335 23.209 6.18525 22.8853C6.41059 22.8102 6.72043 22.8289 6.92698 22.9322ZM4.54535 20.8258C4.25106 20.918 3.95028 21.0123 3.64084 21.1114C3.75038 20.7892 3.85366 20.4794 3.95416 20.1781C4.15515 19.5753 4.34501 19.0059 4.55157 18.4366C4.66424 18.1269 4.61729 17.8828 4.4389 17.6107C2.16676 14.1944 2.28882 10.0742 4.75813 6.80808C8.14755 2.3031 15.0015 1.89014 18.8979 6.00094C21.3954 8.64762 22.2029 11.8011 21.048 15.2643C19.8744 18.7932 17.33 20.8955 13.6683 21.5525C11.4337 21.9561 9.32118 21.5244 7.36827 20.3512C7.02087 20.1447 6.72043 20.1072 6.35425 20.2386C5.76686 20.4428 5.17078 20.6297 4.54535 20.8258Z" ></path>
  </symbol>
  <symbol  xmlns="http://www.w3.org/2000/svg" viewBox="0 0 18 17" id="tg">
    <path d="M7.06403 11.358C8.16158 10.3384 9.22394 9.36213 10.2863 8.37865C11.8341 6.93959 13.389 5.50775 14.9298 4.06146C15.1056 3.90237 15.1971 3.64926 15.3237 3.43955C15.0212 3.25153 14.8172 3.49017 14.6061 3.62757C11.3698 5.73193 8.13343 7.84352 4.90413 9.96235C4.68603 10.107 4.5031 10.1359 4.25686 10.0491C3.12414 9.63693 1.97735 9.24643 0.837594 8.8487C0.816488 8.84147 0.788345 8.84147 0.767239 8.827C0.394356 8.68237 0.0144374 8.50159 0.000366322 8.03877C-0.0137047 7.58319 0.380285 7.44579 0.71799 7.30839C6.02981 5.16064 11.3416 3.02013 16.6535 0.879608C16.8927 0.785598 17.1459 0.713284 17.3992 0.691589C17.8284 0.655432 18.0676 0.93746 17.9832 1.37135C17.35 4.67613 16.7097 7.98092 16.0695 11.2785C15.7811 12.7682 15.4926 14.2506 15.2041 15.7331C15.0212 16.6659 14.1981 16.9769 13.4523 16.3911C11.5175 14.8725 9.58275 13.3467 7.64798 11.8208C7.47913 11.6834 7.29621 11.5388 7.06403 11.358Z" ></path>
  </symbol>
  <symbol  xmlns="http://www.w3.org/2000/svg" viewBox="0 0 24 15" id="vk">
    <path d="M7.9076 1.49553C8.2448 1.29417 8.55391 0.996923 8.90985 0.920213C10.2961 0.613376 11.7012 0.632553 13.0968 0.853093C13.79 0.968157 14.0522 1.30376 14.0522 2.05168C14.0616 3.17355 14.0148 4.28584 14.0054 5.40771C14.0054 5.86797 13.996 6.33781 14.0803 6.78848C14.1272 7.03779 14.3145 7.35421 14.5206 7.45969C14.6705 7.5364 15.017 7.3638 15.1856 7.20079C16.1598 6.28987 16.7593 5.11046 17.3681 3.94065C17.6866 3.33656 17.9488 2.70371 18.2017 2.07085C18.3984 1.58183 18.6701 1.3517 19.2134 1.36129C20.4779 1.39006 21.7424 1.34212 23.0069 1.32294C23.878 1.31335 24.234 1.73525 23.8406 2.51193C23.3067 3.56669 22.651 4.56391 22.0047 5.55154C21.4895 6.33781 20.8994 7.05696 20.3748 7.82406C19.9159 8.49527 19.9721 8.8884 20.5247 9.4829C21.4052 10.4322 22.3232 11.3431 23.1755 12.3211C23.4846 12.6759 23.7282 13.1362 23.8968 13.5869C24.1028 14.143 23.8312 14.5649 23.2505 14.5937C21.9578 14.6608 20.6559 14.7087 19.3632 14.68C18.6514 14.6704 18.0612 14.2485 17.5742 13.7403C17.0965 13.2417 16.6469 12.7047 16.1785 12.1869C16.0848 12.0814 15.9818 11.9855 15.8788 11.8801C14.9796 10.9979 14.455 11.5445 14.1834 12.4074C14.0616 12.791 14.0616 13.2225 14.0335 13.6348C13.9773 14.3444 13.7338 14.6224 13.0406 14.6128C12.0758 14.5937 11.083 14.6608 10.1556 14.4594C8.2167 14.0375 6.64308 12.9061 5.37856 11.3719C3.14925 8.66786 1.51942 5.58031 0.13313 2.35851C-0.157241 1.68731 0.0207285 1.38047 0.732608 1.36129C1.80979 1.33253 2.88698 1.32294 3.96416 1.31335C4.54491 1.30376 4.90085 1.59142 5.15375 2.12839C5.80943 3.51874 6.49321 4.89951 7.22382 6.25152C7.43926 6.66383 7.78583 7.01861 8.1324 7.32545C8.59138 7.73776 9.01288 7.61311 9.19085 7.00902C9.49996 5.93509 9.50933 4.84198 9.42502 3.72969C9.40629 3.51874 9.38756 3.31738 9.35009 3.11602C9.20022 2.21468 9.07845 2.09003 7.9919 1.64895C7.9638 1.60101 7.9357 1.54348 7.9076 1.49553Z" ></path>
  </symbol>
  <symbol  xmlns="http://www.w3.org/2000/svg" viewBox="0 0 15 31" id="fb">
    <path d="M0 17.0216C0 15.2267 0 13.5022 0 11.6956C1.4717 11.6956 2.90943 11.6956 4.42641 11.6956C4.42641 11.3672 4.41509 11.0973 4.42641 10.8393C4.4717 9.19688 4.35849 7.53105 4.60755 5.92387C5.08302 2.80337 7.36981 0.820792 10.4717 0.70348C11.966 0.644824 13.4717 0.773868 15 0.820792C15 2.48663 15 4.03515 15 5.67752C14.6604 5.67752 14.3321 5.67752 14.0038 5.67752C13.2453 5.68925 12.4981 5.68925 11.7396 5.72444C10.5623 5.7831 9.86038 6.38139 9.79245 7.57797C9.71321 8.91533 9.76981 10.2644 9.76981 11.6839C11.4566 11.6839 13.1208 11.6839 14.8415 11.6839C14.6151 13.4905 14.4 15.2267 14.1736 16.9981C12.7019 16.9981 11.2755 16.9981 9.76981 16.9981C9.76981 21.585 9.76981 26.1133 9.76981 30.6885C7.96981 30.6885 6.23773 30.6885 4.42641 30.6885C4.42641 26.1485 4.42641 21.6202 4.42641 17.0216C2.92075 17.0216 1.48302 17.0216 0 17.0216Z" ></path>
  </symbol>
  <symbol fill="none" xmlns="http://www.w3.org/2000/svg" viewBox="0 0 22 23" id="persona">
    <path d="M10.9985 13.2681C14.7908 13.2681 17.8741 10.2925 17.8741 6.6355C17.8741 2.9785 14.7908 0 10.9985 0C7.20921 0 4.12593 2.97563 4.12593 6.6355C4.12593 10.2954 7.20921 13.2681 10.9985 13.2681ZM10.9985 1.76813C13.7779 1.76813 16.039 3.95025 16.039 6.63263C16.039 9.315 13.7779 11.4971 10.9985 11.4971C8.21909 11.5 5.95802 9.31787 5.95802 6.6355C5.95802 3.95312 8.21909 1.76813 10.9985 1.76813ZM22 22.1145V23H0V22.1145C0 18.193 2.21936 14.7689 5.50819 12.9318C6.04739 13.3687 6.6432 13.7396 7.28368 14.0386C4.3434 15.3036 2.21341 18.0119 1.87976 21.229H20.1202C19.7866 18.0119 17.6566 15.3036 14.7163 14.0386C15.3568 13.7396 15.9526 13.3687 16.4918 12.9318C19.7777 14.7689 22 18.193 22 22.1145Z" fill="white"></path>
  </symbol>
  <symbol fill="none" xmlns="http://www.w3.org/2000/svg" viewBox="0 0 16 27" id="handy">
    <path d="M5.5 3C4.94772 3 4.5 3.44772 4.5 4C4.5 4.55228 4.94772 5 5.5 5H10.5C11.0523 5 11.5 4.55228 11.5 4C11.5 3.44772 11.0523 3 10.5 3H5.5Z" fill="white"></path>
    <path d="M7 23C7 22.4477 7.44772 22 8 22C8.55229 22 9 22.4477 9 23C9 23.5523 8.55229 24 8 24C7.44772 24 7 23.5523 7 23Z" fill="white"></path>
    <path fill-rule="evenodd" clip-rule="evenodd" d="M0 4C0 1.79086 1.79086 0 4 0H12C14.2091 0 16 1.79086 16 4V23C16 25.2091 14.2091 27 12 27H4C1.79086 27 0 25.2091 0 23V4ZM4 2C2.89543 2 2 2.89543 2 4V6H14V4C14 2.89543 13.1046 2 12 2H4ZM2 19V8H14V19H2ZM2 21V23C2 24.1046 2.89543 25 4 25H12C13.1046 25 14 24.1046 14 23V21H2Z" fill="white"></path>
  </symbol>
 <symbol fill="none" xmlns="http://www.w3.org/2000/svg" viewBox="0 0 16 20" id="loc">
    <path fill-rule="evenodd" clip-rule="evenodd" d="M8 20C8 20 16 12.4183 16 8C16 3.58173 12.4183 0 8 0C3.58172 0 0 3.58173 0 8C0 12.4183 8 20 8 20ZM8 12C10.2091 12 12 10.2091 12 8C12 5.79086 10.2091 4 8 4C5.79086 4 4 5.79086 4 8C4 10.2091 5.79086 12 8 12Z" fill="#2770F1"></path>
  </symbol>


  <symbol fill="none" xmlns="http://www.w3.org/2000/svg" viewBox="0 0 52 52" id="licens-link">
    <path fill-rule="evenodd" clip-rule="evenodd" d="M33.6117 36.4399C30.1639 39.2614 25.7567 40.9541 20.9541 40.9541C9.90839 40.9541 0.954102 31.9998 0.954102 20.9541C0.954102 9.90839 9.90839 0.954102 20.9541 0.954102C31.9998 0.954102 40.9541 9.90839 40.9541 20.9541C40.9541 25.7566 39.2614 30.1637 36.4401 33.6115L51.0461 48.2175L48.2178 51.046L33.6117 36.4399ZM36.9541 20.9541C36.9541 29.7906 29.7906 36.9541 20.9541 36.9541C12.1176 36.9541 4.9541 29.7906 4.9541 20.9541C4.9541 12.1176 12.1176 4.9541 20.9541 4.9541C29.7906 4.9541 36.9541 12.1176 36.9541 20.9541Z" fill="white"></path>
    <path fill-rule="evenodd" clip-rule="evenodd" d="M22.5 15H19.5V19.5H15V22.5H19.5V27H22.5V22.5H27V19.5H22.5V15Z" fill="white"></path>
  </symbol>



</svg>  

