<svg width="0" height="0" class="hidden">
  <symbol  xmlns="http://www.w3.org/2000/svg" viewBox="0 0 13 22" id="Arrow">
    <path d="M12.3223 11.0234L1.00031 0.998896" ></path>
    <path d="M1 21L12.322 10.9755" ></path>
  </symbol>

<symbol  xmlns="http://www.w3.org/2000/svg" viewBox="0 0 10 18" id="fb">
    <path d="M8.88215 9.80206L9.37504 6.64838H6.29324V4.60186C6.29324 3.73908 6.72375 2.89807 8.10399 2.89807H9.50503V0.213059C9.50503 0.213059 8.23362 0 7.01803 0C4.48007 0 2.82114 1.51047 2.82114 4.24484V6.64838H0V9.80206H2.82114V17.4259H6.29324V9.80206H8.88215Z"  ></path>
  </symbol>
  <symbol  xmlns="http://www.w3.org/2000/svg" viewBox="0 0 18 16" id="tv">
    <path d="M15.6346 4.27361C15.6457 4.44247 15.6457 4.61137 15.6457 4.78023C15.6457 9.93077 12.0522 15.8654 5.48429 15.8654C3.46084 15.8654 1.58116 15.2261 0 14.1164C0.287493 14.1526 0.563891 14.1646 0.862445 14.1646C2.53203 14.1646 4.06898 13.5495 5.29631 12.5001C3.72621 12.4639 2.41042 11.3421 1.95708 9.79811C2.17824 9.83427 2.39936 9.85841 2.63158 9.85841C2.95222 9.85841 3.2729 9.81014 3.57142 9.72575C1.93499 9.36385 0.70762 7.79578 0.70762 5.90201V5.85378C1.18305 6.14328 1.73595 6.32421 2.32193 6.3483C1.35997 5.64868 0.729743 4.45454 0.729743 3.10356C0.729743 2.37984 0.906622 1.71642 1.21624 1.13743C2.97431 3.50162 5.61695 5.04556 8.5802 5.21446C8.52493 4.92496 8.49175 4.62344 8.49175 4.32188C8.49175 2.17478 10.084 0.425781 12.0632 0.425781C13.0915 0.425781 14.0202 0.896206 14.6726 1.65613C15.4798 1.48726 16.2538 1.16157 16.9393 0.715276C16.6739 1.61996 16.11 2.37988 15.3692 2.86234C16.0879 2.77794 16.7845 2.56077 17.4258 2.25925C16.9394 3.0312 16.3312 3.71872 15.6346 4.27361Z" ></path>
  </symbol>

 <symbol  xmlns="http://www.w3.org/2000/svg" viewBox="0 0 20 15" id="youtube">
    <path fill-rule="evenodd" clip-rule="evenodd" d="M7.98844 10.4533V4.84149C9.98064 5.77891 11.5236 6.68449 13.3485 7.66082C11.8433 8.49553 9.98064 9.4321 7.98844 10.4533ZM19.091 2.05047C18.7474 1.59771 18.1616 1.24528 17.5381 1.1286C15.7053 0.780546 4.27099 0.779556 2.43915 1.1286C1.93911 1.22234 1.49384 1.44892 1.11133 1.80096C-0.500362 3.29686 0.00466618 11.3189 0.393147 12.6183C0.556507 13.1808 0.76769 13.5864 1.03365 13.8527C1.37631 14.2047 1.84547 14.4471 2.38436 14.5558C3.89345 14.868 11.668 15.0425 17.5062 14.6027C18.0441 14.509 18.5202 14.2588 18.8958 13.8918C20.3859 12.4019 20.2843 3.92932 19.091 2.05047Z" ></path>
  </symbol>
 <symbol  xmlns="http://www.w3.org/2000/svg" viewBox="0 0 17 18" id="instagram">
    <path d="M17 5.82992C17 4.87961 16.7888 4.35166 16.5776 3.71812C16.3665 3.19017 16.0497 2.66222 15.6273 2.23986C15.205 1.71191 14.677 1.50073 14.1491 1.28955C13.6211 1.07837 12.9876 0.972778 12.0373 0.867188C11.087 0.867188 10.7702 0.867188 8.4472 0.867188C6.22981 0.867188 5.91304 0.867188 4.96273 0.867188C4.01242 0.867188 3.48447 1.07837 2.85093 1.28955C2.32298 1.50073 1.79503 1.8175 1.37267 2.23986C0.95031 2.76781 0.63354 3.19017 0.42236 3.82371C0.21118 4.35166 0.10559 4.9852 0 5.82992C0 6.78023 0 7.097 0 9.31439C0 11.6374 0 11.9541 0 12.7989C0 13.7492 0.21118 14.2771 0.42236 14.9107C0.63354 15.4386 0.95031 15.9666 1.37267 16.3889C1.90062 16.9169 2.32298 17.1281 2.85093 17.3392C3.37888 17.5504 4.01242 17.656 4.96273 17.7616C5.91304 17.7616 6.12422 17.7616 8.4472 17.7616C10.7702 17.7616 11.087 17.7616 11.9317 17.7616C12.882 17.7616 13.4099 17.5504 14.0435 17.3392C14.5714 17.1281 15.0994 16.8113 15.5217 16.3889C16.0497 15.861 16.2609 15.4386 16.472 14.9107C16.6832 14.3827 16.7888 13.7492 16.8944 12.7989C17 11.8486 16.8944 11.6374 16.8944 9.31439C16.8944 6.99141 17 6.78023 17 5.82992ZM8.4472 13.7492C6.01863 13.7492 4.11801 11.743 4.11801 9.41998C4.11801 6.99141 6.12422 5.09079 8.4472 5.09079C10.8758 5.09079 12.7764 7.097 12.7764 9.41998C12.882 11.743 10.8758 13.7492 8.4472 13.7492ZM12.9876 5.82992C12.4596 5.82992 11.9317 5.40756 11.9317 4.77402C11.9317 4.24607 12.354 3.71812 12.9876 3.71812C13.5155 3.71812 14.0435 4.14048 14.0435 4.77402C14.0435 5.40756 13.6211 5.82992 12.9876 5.82992Z" ></path>
    <path d="M11.2976 9.31565C11.2976 10.8995 10.0305 12.1666 8.44663 12.1666C6.86278 12.1666 5.5957 10.8995 5.5957 9.31565C5.5957 7.7318 6.96837 6.57031 8.44663 6.57031C10.0305 6.57031 11.2976 7.83739 11.2976 9.31565Z" ></path>
  </symbol>
   <symbol  xmlns="http://www.w3.org/2000/svg" viewBox="0 0 20 19" id="icd">
    <path d="M17.6522 0.761719H1.35362C0.606794 0.761719 0 1.35136 0 2.0752V17.6662C0 18.39 0.606794 18.9797 1.35362 18.9797H17.6522C18.399 18.9797 19.0101 18.39 19.0101 17.6662V2.0752C19.0101 1.35136 18.399 0.761719 17.6522 0.761719ZM5.74545 16.3771H2.92789V7.68292H5.74969V16.3771H5.74545ZM4.33667 6.4955C3.43284 6.4955 2.70299 5.79199 2.70299 4.92989C2.70299 4.06779 3.43284 3.36429 4.33667 3.36429C5.23625 3.36429 5.97035 4.06779 5.97035 4.92989C5.97035 5.79606 5.24049 6.4955 4.33667 6.4955ZM16.3071 16.3771H13.4895V12.1479C13.4895 11.1395 13.4683 9.84224 12.0256 9.84224C10.5574 9.84224 10.3325 10.9402 10.3325 12.0748V16.3771H7.51491V7.68292H10.2179V8.87034H10.2561C10.6337 8.18717 11.5545 7.46739 12.9251 7.46739C15.7766 7.46739 16.3071 9.26886 16.3071 11.6112V16.3771Z" ></path>
  </symbol>
<!-- ====================== -->

  <symbol   xmlns="http://www.w3.org/2000/svg" viewBox="0 0 16 16" id="list">
    <path fill-rule="evenodd" clip-rule="evenodd" d="M2.5 11.5C2.5 11.2239 2.72386 11 3 11H13C13.2761 11 13.5 11.2239 13.5 11.5C13.5 11.7761 13.2761 12 13 12H3C2.72386 12 2.5 11.7761 2.5 11.5Z" ></path>
    <path fill-rule="evenodd" clip-rule="evenodd" d="M2.5 7.5C2.5 7.22386 2.72386 7 3 7H13C13.2761 7 13.5 7.22386 13.5 7.5C13.5 7.77614 13.2761 8 13 8H3C2.72386 8 2.5 7.77614 2.5 7.5Z" ></path>
    <path fill-rule="evenodd" clip-rule="evenodd" d="M2.5 3.5C2.5 3.22386 2.72386 3 3 3H13C13.2761 3 13.5 3.22386 13.5 3.5C13.5 3.77614 13.2761 4 13 4H3C2.72386 4 2.5 3.77614 2.5 3.5Z" ></path>
  </symbol>
   <symbol  xmlns="http://www.w3.org/2000/svg" viewBox="0 0 16 16" id="x">
    <path d="M2.14645 2.85355C1.95118 2.65829 1.95118 2.34171 2.14645 2.14645C2.34171 1.95118 2.65829 1.95118 2.85355 2.14645L8 7.29289L13.1464 2.14645C13.3417 1.95118 13.6583 1.95118 13.8536 2.14645C14.0488 2.34171 14.0488 2.65829 13.8536 2.85355L8.70711 8L13.8536 13.1464C14.0488 13.3417 14.0488 13.6583 13.8536 13.8536C13.6583 14.0488 13.3417 14.0488 13.1464 13.8536L8 8.70711L2.85355 13.8536C2.65829 14.0488 2.34171 14.0488 2.14645 13.8536C1.95119 13.6583 1.95119 13.3417 2.14645 13.1464L7.29289 8L2.14645 2.85355Z" ></path>
  </symbol>
  <symbol  xmlns="http://www.w3.org/2000/svg" viewBox="0 0 16 16" id="chevron-left">
    <path fill-rule="evenodd" clip-rule="evenodd" d="M11.3536 1.64645C11.5488 1.84171 11.5488 2.15829 11.3536 2.35355L5.70711 8L11.3536 13.6464C11.5488 13.8417 11.5488 14.1583 11.3536 14.3536C11.1583 14.5488 10.8417 14.5488 10.6464 14.3536L4.64645 8.35355C4.45118 8.15829 4.45118 7.84171 4.64645 7.64645L10.6464 1.64645C10.8417 1.45118 11.1583 1.45118 11.3536 1.64645Z" ></path>
  </symbol>
  <symbol  xmlns="http://www.w3.org/2000/svg" viewBox="0 0 16 16" id="chevron-right">
    <path fill-rule="evenodd" clip-rule="evenodd" d="M4.64645 1.64645C4.84171 1.45118 5.15829 1.45118 5.35355 1.64645L11.3536 7.64645C11.5488 7.84171 11.5488 8.15829 11.3536 8.35355L5.35355 14.3536C5.15829 14.5488 4.84171 14.5488 4.64645 14.3536C4.45118 14.1583 4.45118 13.8417 4.64645 13.6464L10.2929 8L4.64645 2.35355C4.45118 2.15829 4.45118 1.84171 4.64645 1.64645Z" ></path>
  </symbol>
  <symbol  xmlns="http://www.w3.org/2000/svg" viewBox="0 0 16 16" id="chevron-down">
    <path fill-rule="evenodd" clip-rule="evenodd" d="M1.64645 4.64645C1.84171 4.45118 2.15829 4.45118 2.35355 4.64645L8 10.2929L13.6464 4.64645C13.8417 4.45118 14.1583 4.45118 14.3536 4.64645C14.5488 4.84171 14.5488 5.15829 14.3536 5.35355L8.35355 11.3536C8.15829 11.5488 7.84171 11.5488 7.64645 11.3536L1.64645 5.35355C1.45118 5.15829 1.45118 4.84171 1.64645 4.64645Z" ></path>
  </symbol>


  <symbol  xmlns="http://www.w3.org/2000/svg" viewBox="0 0 30 45" id="sheet">
    <path d="M25.7108 44.0018C25.255 44.0018 24.7992 44.0018 24.3331 44.0018C23.8773 44.0018 23.4111 44.0018 22.9553 44.0018H11.5499C8.59758 44.0018 5.65559 44.0018 2.70324 44.0018C0.880037 43.9912 -0.000488281 43.0729 -0.000488281 41.1938C-0.000488281 28.3814 -0.000488281 15.5689 -0.000488281 2.7565C-0.000488281 0.941409 0.8386 0.0445391 2.57893 0.00183105H21.4843C22.2095 0.0552162 22.7999 0.343496 23.349 0.909378C25.4104 3.06614 27.099 4.80649 28.6632 6.38669C29.3987 7.1234 29.9166 7.72132 29.9995 8.58616V41.5354C29.9684 42.9875 29.0154 43.9698 27.6273 43.9805C27.0472 43.9912 26.4463 44.0018 25.7108 44.0018ZM2.63073 1.01615C1.44979 1.01615 0.993987 1.49661 0.993987 2.72447C0.993987 15.5689 0.993987 28.4134 0.993987 41.2578C0.993987 42.4964 1.47051 42.9768 2.68252 42.9768C10.8973 42.9768 19.1121 42.9768 27.3269 42.9768C28.5492 42.9768 29.005 42.507 29.005 41.2578C29.005 32.7696 29.005 8.49006 29.005 8.49006H28.5907C28.1142 8.49006 27.648 8.49006 27.1818 8.49006C26.726 8.49006 26.2806 8.49006 25.8455 8.49006C25.2758 8.49006 24.7164 8.49006 24.157 8.49006C22.7274 8.47939 21.764 7.48642 21.7537 6.02367C21.7433 5.10545 21.7537 4.16587 21.7537 3.25832C21.7537 2.8526 21.7537 2.43619 21.7537 2.03046V1.05886L9.99951 1.00183L10.0271 8.86376L7.28197 7.18747L3.99951 9.00183V1.00183L3.17976 1.01615C2.98294 1.01615 2.80683 1.01615 2.63073 1.01615ZM22.7481 2.88463C22.7481 3.22629 22.7481 3.56796 22.7481 3.88827C22.7481 4.67837 22.7378 5.41508 22.7585 6.16247C22.7792 6.93122 23.3179 7.44371 24.1363 7.46507C24.3849 7.47575 24.6438 7.47575 24.9753 7.47575C25.1618 7.47575 25.3379 7.47575 25.5244 7.47575C25.7108 7.47575 25.8869 7.47575 26.0734 7.47575H28.1867L22.7585 1.84896V2.88463H22.7481ZM4.99951 7.00183L7.30269 5.99164L9.0223 7.04867L8.99951 1.00183H4.99951V7.00183Z" ></path>
    <path d="M4.99951 32.0018V23.0018H24.9995V32.0018H4.99951ZM5.92305 30.8868H24.0363V24.1055H5.92305V30.8868Z" ></path>
    <path d="M24.9995 12.0018H4.99951V13.0018H24.9995V12.0018Z" ></path>
    <path d="M24.9995 16.0018H4.99951V17.0018H24.9995V16.0018Z" ></path>
    <path d="M24.9995 20.0018H4.99951V21.0018H24.9995V20.0018Z" ></path>
    <path d="M24.9995 38.002H4.99951V39.002H24.9995V38.002Z" ></path>
    <path d="M13.9995 34.002H4.99951V35.002H13.9995V34.002Z" ></path>
  </symbol>
  <symbol  xmlns="http://www.w3.org/2000/svg" viewBox="0 0 52 52" id="licens-link">
    <path fill-rule="evenodd" clip-rule="evenodd" d="M33.6117 36.4399C30.1639 39.2614 25.7567 40.9541 20.9541 40.9541C9.90839 40.9541 0.954102 31.9998 0.954102 20.9541C0.954102 9.90839 9.90839 0.954102 20.9541 0.954102C31.9998 0.954102 40.9541 9.90839 40.9541 20.9541C40.9541 25.7566 39.2614 30.1637 36.4401 33.6115L51.0461 48.2175L48.2178 51.046L33.6117 36.4399ZM36.9541 20.9541C36.9541 29.7906 29.7906 36.9541 20.9541 36.9541C12.1176 36.9541 4.9541 29.7906 4.9541 20.9541C4.9541 12.1176 12.1176 4.9541 20.9541 4.9541C29.7906 4.9541 36.9541 12.1176 36.9541 20.9541Z" ></path>
    <path fill-rule="evenodd" clip-rule="evenodd" d="M22.5 15H19.5V19.5H15V22.5H19.5V27H22.5V22.5H27V19.5H22.5V15Z" ></path>
  </symbol>
  <symbol fill="none" xmlns="http://www.w3.org/2000/svg" viewBox="0 0 16 16" id="load">
    <path d="M3.72722 5.41695C3.61234 5.41771 3.49359 5.41849 3.36892 5.41849C3.41263 5.30618 3.43761 5.25332 3.46258 5.20047C4.53664 3.19863 6.88458 2.05567 9.00771 2.55778C11.1246 3.05328 12.4797 4.43409 13.0916 6.63413C13.2665 7.26177 13.7411 7.56567 14.2718 7.40051C14.7714 7.24194 15.0337 6.7068 14.8588 6.09898C14.0096 3.07971 12.1362 1.15716 9.20754 0.628618C6.19768 0.0868668 3.7873 1.26947 2.03883 3.93198C2.01433 3.96901 1.98787 4.00397 1.95065 4.05314C1.92146 4.09169 1.88566 4.13898 1.83901 4.20285C1.83901 4.03285 1.8401 3.87094 1.84116 3.71473C1.84367 3.34278 1.84596 3.00313 1.83276 2.66349C1.80779 2.10192 1.39565 1.71212 0.896088 1.72533C0.409016 1.73855 0.0156114 2.14156 0.00936699 2.68331C-0.00312233 3.91876 -0.00312233 5.14761 0.00936699 6.38307C0.0156114 6.94464 0.390282 7.34105 0.921066 7.34765C2.06381 7.36087 3.2128 7.36087 4.35555 7.34765C4.90507 7.34765 5.28598 6.91822 5.27974 6.36986C5.27349 5.83471 4.88633 5.4317 4.35555 5.41849C4.1508 5.41416 3.94605 5.41551 3.72722 5.41695Z" fill="white"></path>
    <path d="M12.0488 14.1592C12.8793 13.5448 13.5537 12.7784 14.1594 11.8931C14.1594 12.048 14.158 12.2029 14.1566 12.357C14.1539 12.6631 14.1511 12.9663 14.1594 13.2607C14.1782 13.8685 14.5778 14.2847 15.1024 14.2649C15.6206 14.2517 15.9953 13.8289 15.9953 13.2409C16.0016 12.0516 16.0016 10.8624 15.9953 9.67323C15.9953 9.03898 15.6269 8.64918 15.0212 8.64258C13.9159 8.63597 12.8169 8.63597 11.7116 8.64258C11.1183 8.64918 10.7187 9.05219 10.7249 9.62698C10.7312 10.1819 11.1308 10.5717 11.7116 10.5783C11.9042 10.5827 12.0969 10.5813 12.302 10.5799C12.4092 10.5791 12.5199 10.5783 12.6358 10.5783C12.6227 10.6076 12.6109 10.6343 12.6001 10.6591C12.5643 10.7405 12.5382 10.8001 12.5046 10.8558C11.1433 13.2937 8.12723 14.2517 5.72309 12.9964C4.25563 12.23 3.33768 10.988 2.89432 9.32968C2.73196 8.72186 2.24489 8.43116 1.7266 8.59633C1.23953 8.75489 0.989745 9.26361 1.12712 9.83839C2.31358 14.8991 8.01482 17.1454 12.0488 14.1592Z" fill="white"></path>
  </symbol>

</svg>  

