<svg width="0" height="0" class="hidden">

  
   <symbol  xmlns="http://www.w3.org/2000/svg" viewBox="0 0 16 16" id="x">
    <path d="M2.14645 2.85355C1.95118 2.65829 1.95118 2.34171 2.14645 2.14645C2.34171 1.95118 2.65829 1.95118 2.85355 2.14645L8 7.29289L13.1464 2.14645C13.3417 1.95118 13.6583 1.95118 13.8536 2.14645C14.0488 2.34171 14.0488 2.65829 13.8536 2.85355L8.70711 8L13.8536 13.1464C14.0488 13.3417 14.0488 13.6583 13.8536 13.8536C13.6583 14.0488 13.3417 14.0488 13.1464 13.8536L8 8.70711L2.85355 13.8536C2.65829 14.0488 2.34171 14.0488 2.14645 13.8536C1.95119 13.6583 1.95119 13.3417 2.14645 13.1464L7.29289 8L2.14645 2.85355Z" ></path>
  </symbol>
  
   <symbol fill="none" xmlns="http://www.w3.org/2000/svg" viewBox="0 0 16 14" id="like">
    <path d="M14.6745 1.70435C12.9346 0.0517371 10.1025 0.0517371 8.36194 1.70398L8.00003 2.04708L7.6385 1.70413C5.89778 0.0516746 3.06606 0.0518618 1.32534 1.70413C0.470656 2.51553 0 3.59177 0 4.73429C0 5.87718 0.470656 6.95323 1.32547 7.76498L7.61356 13.7234C7.72172 13.8262 7.86097 13.8773 8 13.8773C8.13903 13.8773 8.27809 13.826 8.38644 13.7233L14.6745 7.76498C15.5292 6.95342 16 5.87721 16 4.73448C16 3.59177 15.5292 2.51572 14.6745 1.70435ZM13.9009 6.95249L8 12.5443L2.09928 6.95267C1.46956 6.35499 1.12281 5.56715 1.12281 4.73448C1.12281 3.90181 1.46956 3.11396 2.09928 2.51628C2.75612 1.89243 3.61881 1.58071 4.48169 1.58071C5.34475 1.58071 6.20781 1.89281 6.86466 2.51665L7.61319 3.22624C7.82987 3.43189 8.16991 3.43189 8.38663 3.22624L9.13534 2.51628C10.4492 1.26877 12.5868 1.26877 13.9007 2.51628C14.5302 3.11399 14.8772 3.90181 14.8772 4.73448C14.8772 5.56715 14.5303 6.35481 13.9009 6.95249Z" fill="#ACACAC"></path>
  </symbol>
  
  <symbol fill="none" xmlns="http://www.w3.org/2000/svg" viewBox="0 0 18 18" id="round">
    <path d="M9.00168 1.89226C10.4075 1.89226 11.7817 2.30913 12.9505 3.09013C14.1194 3.87114 15.0304 4.98122 15.5684 6.27999C16.1063 7.57875 16.2471 9.00788 15.9728 10.3866C15.6986 11.7654 15.0216 13.0319 14.0276 14.0259C13.0336 15.02 11.7671 15.6969 10.3883 15.9712C9.00956 16.2454 7.58044 16.1047 6.28167 15.5667C4.9829 15.0287 3.87282 14.1177 3.09181 12.9488C2.31081 11.78 1.89395 10.4058 1.89395 9C1.89572 7.11546 2.64514 5.30861 3.97771 3.97603C5.31029 2.64346 7.11714 1.89404 9.00168 1.89226ZM9.00168 1.56413e-07C7.22158 -0.000331643 5.48135 0.527227 4.00109 1.51596C2.52083 2.50469 1.36702 3.91018 0.68557 5.55469C0.00412396 7.19919 -0.174345 9.00884 0.172732 10.7548C0.519809 12.5007 1.37684 14.1045 2.63545 15.3634C3.89405 16.6222 5.4977 17.4795 7.24357 17.8269C8.98945 18.1743 10.7991 17.9962 12.4438 17.3151C14.0884 16.6339 15.4941 15.4804 16.4831 14.0003C17.4721 12.5202 18 10.7801 18 9C18 6.61334 17.052 4.32441 15.3646 2.63663C13.6771 0.948853 11.3883 0.000445013 9.00168 1.56413e-07Z" fill="#FC4C02"></path>
    <path d="M9.68609 14.1618H8.30212L5.17519 4.68705H7.09094L8.99495 10.8621L10.8973 4.68705H12.8264L9.68609 14.1618Z" fill="#FC4C02"></path>
  </symbol>

   <symbol fill="none" xmlns="http://www.w3.org/2000/svg" viewBox="0 0 40 33" id="get1">
    <path d="M40 4.58648C40 1.57459 37.1449 -0.618833 34.2347 0.157327L3.40269 8.38044C1.39612 8.91561 0 10.7329 0 12.8096V18.5222C0 20.5989 1.39613 22.4162 3.4027 22.9513L8.32718 24.2647V24.8338C8.32718 28.9765 11.6855 32.3348 15.8282 32.3348C18.8118 32.3348 21.3886 30.5929 22.5969 28.0706L34.2347 31.1745C37.1449 31.9506 40 29.7572 40 26.7453V4.58648ZM34.8791 2.57323C36.2019 2.22043 37.4996 3.21745 37.4996 4.58648V26.7453C37.4996 28.1143 36.2019 29.1114 34.8791 28.7586L4.04704 20.5354C3.13496 20.2922 2.50035 19.4661 2.50035 18.5222V12.8096C2.50035 11.8656 3.13495 11.0396 4.04703 10.7963L34.8791 2.57323ZM20.1158 27.4089C19.2411 28.8623 17.6482 29.8345 15.8282 29.8345C13.0992 29.8345 10.8807 27.6484 10.8285 24.9319L20.1158 27.4089Z" fill="#FC4C02"></path>
  </symbol>

<symbol fill="none" xmlns="http://www.w3.org/2000/svg" viewBox="0 0 40 44" id="get2">
    <path d="M20 0C15.7323 0 12.2727 3.45962 12.2727 7.72727C12.2727 11.5296 15.0191 14.6905 18.6363 15.3346V20.9132H10.4545C8.1952 20.9132 6.36364 22.7448 6.36364 25.0041V28.3059C2.74635 28.9499 0 32.1108 0 35.9132C0 40.1809 3.45962 43.6405 7.72727 43.6405C11.9949 43.6405 15.4545 40.1809 15.4545 35.9132C15.4545 32.1108 12.7082 28.9499 9.09091 28.3059V25.0041C9.09091 24.251 9.70143 23.6405 10.4545 23.6405H29.5455C30.2986 23.6405 30.9091 24.251 30.9091 25.0041V28.3059C27.2918 28.9499 24.5455 32.1108 24.5455 35.9132C24.5455 40.1809 28.0051 43.6405 32.2727 43.6405C36.5404 43.6405 40 40.1809 40 35.9132C40 32.1108 37.2537 28.9499 33.6364 28.3059V25.0041C33.6364 22.7448 31.8048 20.9132 29.5455 20.9132H21.3636V15.3346C24.9809 14.6906 27.7273 11.5296 27.7273 7.72727C27.7273 3.45962 24.2677 0 20 0ZM15 7.72727C15 4.96585 17.2386 2.72727 20 2.72727C22.7614 2.72727 25 4.96585 25 7.72727C25 10.4887 22.7614 12.7273 20 12.7273C17.2386 12.7273 15 10.4887 15 7.72727ZM2.72727 35.9132C2.72727 33.1518 4.96585 30.9132 7.72727 30.9132C10.4887 30.9132 12.7273 33.1518 12.7273 35.9132C12.7273 38.6746 10.4887 40.9132 7.72727 40.9132C4.96585 40.9132 2.72727 38.6746 2.72727 35.9132ZM32.2727 30.9132C35.0342 30.9132 37.2727 33.1518 37.2727 35.9132C37.2727 38.6746 35.0342 40.9132 32.2727 40.9132C29.5113 40.9132 27.2727 38.6746 27.2727 35.9132C27.2727 33.1518 29.5113 30.9132 32.2727 30.9132Z" fill="#FC4C02"></path>
  </symbol>

  <symbol fill="none" xmlns="http://www.w3.org/2000/svg" viewBox="0 0 40 37" id="get3">
    <path d="M3.33475 0H6.65283C8.40994 0 9.85105 1.36124 9.97843 3.08599L9.98758 3.33475V33.3475C9.98758 35.1046 8.62634 36.5457 6.90159 36.6731L6.65283 36.6823H3.33475C1.57764 36.6823 0.136532 35.321 0.00915261 33.5963L0 33.3475V3.33475C0 1.57764 1.36124 0.136532 3.08599 0.00915241L3.33475 0H6.65283H3.33475ZM14.998 0H18.3245C20.0816 0 21.5227 1.36124 21.6501 3.08599L21.6592 3.33475V33.3475C21.6592 35.1046 20.298 36.5457 18.5732 36.6731L18.3245 36.6823H14.998C13.2393 36.6823 11.7997 35.321 11.6724 33.5963L11.6633 33.3475V3.33475C11.6633 1.57764 13.023 0.136532 14.7491 0.00915241L14.998 0H18.3245H14.998ZM30.2305 3.37877C31.6366 3.37877 32.9245 4.2753 33.3867 5.64576L33.4636 5.90818L39.8996 31.7242C40.3262 33.4287 39.355 35.1561 37.7112 35.6983L37.4719 35.7675L34.1989 36.5829C33.9288 36.6496 33.657 36.6829 33.3902 36.6829C31.9825 36.6829 30.696 35.7849 30.234 34.4157L30.1572 34.1535L23.7194 8.33754C23.2945 6.62977 24.2657 4.90377 25.9095 4.36319L26.1488 4.29416L29.4218 3.47881C29.692 3.41212 29.9637 3.37877 30.2305 3.37877ZM6.65283 2.50106H3.33475C2.92717 2.50106 2.58546 2.79749 2.51456 3.1854L2.50106 3.33475V33.3475C2.50106 33.7551 2.79749 34.0968 3.1854 34.1677L3.33475 34.1812H6.65283C7.06189 34.1812 7.40245 33.8848 7.47308 33.4969L7.48652 33.3475V3.33475C7.48652 2.92717 7.19141 2.58546 6.80262 2.51456L6.65283 2.50106ZM18.3245 2.50106H14.998C14.589 2.50106 14.2484 2.79749 14.1778 3.1854L14.1644 3.33475V33.3475C14.1644 33.7551 14.4595 34.0968 14.8482 34.1677L14.998 34.1812H18.3245C18.7335 34.1812 19.0741 33.8848 19.1447 33.4969L19.1581 33.3475V3.33475C19.1581 2.92717 18.863 2.58546 18.4743 2.51456L18.3245 2.50106ZM30.2305 5.87983L30.128 5.88609L30.0254 5.90484L26.754 6.72019C26.3568 6.81949 26.098 7.18887 26.1238 7.5824L26.1471 7.73062L32.5832 33.5483C32.6916 33.9818 33.0784 34.1819 33.3902 34.1819L33.4925 34.1754L33.5936 34.1552L36.8667 33.3398C37.2639 33.2405 37.5228 32.8725 37.4969 32.4781L37.4736 32.3294L31.0359 6.51177C30.9275 6.07658 30.5423 5.87983 30.2305 5.87983Z" fill="#FC4C02"></path>
  </symbol>

  <symbol fill="none" xmlns="http://www.w3.org/2000/svg" viewBox="0 0 40 36" id="get4">
    <path d="M25.4167 23.3333C27.4877 23.3333 29.1667 25.0123 29.1667 27.0833V29.5866L29.1535 29.7674C28.6356 33.3111 25.4525 35.0151 20.1113 35.0151C14.7894 35.0151 11.5555 33.3306 10.8574 29.8276L10.8333 29.5833V27.0833C10.8333 25.0123 12.5123 23.3333 14.5833 23.3333H25.4167ZM25.4167 25.8333H14.5833C13.893 25.8333 13.3333 26.393 13.3333 27.0833V29.4506C13.7997 31.4513 15.9177 32.5151 20.1113 32.5151C24.3048 32.5151 26.3277 31.4628 26.6667 29.4886V27.0833C26.6667 26.393 26.107 25.8333 25.4167 25.8333ZM27.0726 13.3315L36.25 13.3333C38.3211 13.3333 40 15.0123 40 17.0833V19.5866L39.9869 19.7674C39.4689 23.3111 36.2859 25.0151 30.9446 25.0151L30.4199 25.0095C29.9282 23.8201 29.0252 22.8464 27.8889 22.2625C28.7469 22.4307 29.7635 22.5151 30.9446 22.5151C35.1381 22.5151 37.1611 21.4628 37.5 19.4886V17.0833C37.5 16.393 36.9404 15.8333 36.25 15.8333H27.5C27.5 14.9561 27.3494 14.114 27.0726 13.3315ZM3.75 13.3333L12.9274 13.3315C12.6968 13.9836 12.5537 14.677 12.5124 15.3977L12.5 15.8333H3.75C3.05964 15.8333 2.5 16.393 2.5 17.0833V19.4506C2.96632 21.4513 5.08438 22.5151 9.27798 22.5151C10.3148 22.5151 11.2189 22.4507 11.9977 22.3241C10.9131 22.9131 10.0533 23.8624 9.57725 25.011L9.27798 25.0151C3.95602 25.0151 0.722169 23.3306 0.0241045 19.8276L0 19.5833V17.0833C0 15.0123 1.67893 13.3333 3.75 13.3333ZM20 10C23.2217 10 25.8333 12.6117 25.8333 15.8333C25.8333 19.055 23.2217 21.6667 20 21.6667C16.7783 21.6667 14.1667 19.055 14.1667 15.8333C14.1667 12.6117 16.7783 10 20 10ZM20 12.5C18.159 12.5 16.6667 13.9924 16.6667 15.8333C16.6667 17.6743 18.159 19.1667 20 19.1667C21.8409 19.1667 23.3333 17.6743 23.3333 15.8333C23.3333 13.9924 21.8409 12.5 20 12.5ZM30.8333 0C34.055 0 36.6667 2.61167 36.6667 5.83333C36.6667 9.05499 34.055 11.6667 30.8333 11.6667C27.6117 11.6667 25 9.05499 25 5.83333C25 2.61167 27.6117 0 30.8333 0ZM9.16667 0C12.3883 0 15 2.61167 15 5.83333C15 9.05499 12.3883 11.6667 9.16667 11.6667C5.94501 11.6667 3.33333 9.05499 3.33333 5.83333C3.33333 2.61167 5.94501 0 9.16667 0ZM30.8333 2.5C28.9924 2.5 27.5 3.99238 27.5 5.83333C27.5 7.67428 28.9924 9.16667 30.8333 9.16667C32.6743 9.16667 34.1667 7.67428 34.1667 5.83333C34.1667 3.99238 32.6743 2.5 30.8333 2.5ZM9.16667 2.5C7.32572 2.5 5.83333 3.99238 5.83333 5.83333C5.83333 7.67428 7.32572 9.16667 9.16667 9.16667C11.0076 9.16667 12.5 7.67428 12.5 5.83333C12.5 3.99238 11.0076 2.5 9.16667 2.5Z" fill="#FC4C02"></path>
  </symbol>
    <symbol fill="none" xmlns="http://www.w3.org/2000/svg" viewBox="0 0 40 30" id="get5">
    <path d="M7.97919 0.43934C8.56497 1.02513 8.56497 1.97487 7.97919 2.56066C1.34027 9.19957 1.34027 19.9634 7.97919 26.6023C8.56497 27.1881 8.56497 28.1378 7.97919 28.7236C7.3934 29.3094 6.44365 29.3094 5.85786 28.7236C-1.95262 20.9131 -1.95262 8.24983 5.85786 0.43934C6.44365 -0.146447 7.3934 -0.146447 7.97919 0.43934ZM34.1421 0.43934C41.9526 8.24983 41.9526 20.9131 34.1421 28.7236C33.5564 29.3094 32.6066 29.3094 32.0208 28.7236C31.435 28.1378 31.435 27.1881 32.0208 26.6023C38.6597 19.9634 38.6597 9.19957 32.0208 2.56066C31.435 1.97487 31.435 1.02513 32.0208 0.43934C32.6066 -0.146447 33.5564 -0.146447 34.1421 0.43934ZM13.636 6.0962C14.2218 6.68198 14.2218 7.63173 13.636 8.21752C10.1213 11.7322 10.1213 17.4307 13.636 20.9454C14.2218 21.5312 14.2218 22.481 13.636 23.0668C13.0503 23.6525 12.1005 23.6525 11.5147 23.0668C6.82843 18.3805 6.82843 10.7825 11.5147 6.0962C12.1005 5.51041 13.0503 5.51041 13.636 6.0962ZM28.4853 6.0962C33.1716 10.7825 33.1716 18.3805 28.4853 23.0668C27.8995 23.6525 26.9497 23.6525 26.364 23.0668C25.7782 22.481 25.7782 21.5312 26.364 20.9454C29.8787 17.4307 29.8787 11.7322 26.364 8.21752C25.7782 7.63173 25.7782 6.68198 26.364 6.0962C26.9497 5.51041 27.8995 5.51041 28.4853 6.0962ZM20 11.5815C21.6569 11.5815 23 12.9246 23 14.5815C23 16.2383 21.6569 17.5815 20 17.5815C18.3431 17.5815 17 16.2383 17 14.5815C17 12.9246 18.3431 11.5815 20 11.5815Z" fill="#FC4C02"></path>
  </symbol>
  <symbol fill="none" xmlns="http://www.w3.org/2000/svg" viewBox="0 0 40 40" id="get6">
    <path d="M36.5 0C38.433 0 40 1.567 40 3.5V9.58542C40 11.6337 38.8617 13.5124 37.0461 14.4606L24.4825 21.0213C27.7546 22.6648 30 26.0516 30 29.9628C30 35.4856 25.5228 39.9628 20 39.9628C14.4772 39.9628 10 35.4856 10 29.9628C10 26.0516 12.2454 22.6648 15.5175 21.0213L2.95387 14.4606C1.13826 13.5124 0 11.6337 0 9.58542V3.5C0 1.567 1.567 0 3.5 0H36.5ZM20 22.9628C16.134 22.9628 13 26.0968 13 29.9628C13 33.8288 16.134 36.9628 20 36.9628C23.866 36.9628 27 33.8288 27 29.9628C27 26.0968 23.866 22.9628 20 22.9628ZM27 2.998H13V16.322L19.7685 19.8578C19.9136 19.9336 20.0864 19.9336 20.2315 19.8578L27 16.32V2.998ZM10 2.998L3.5 3C3.22386 3 3 3.22386 3 3.5V9.58542C3 10.5165 3.51739 11.3704 4.34267 11.8014L10 14.754V2.998ZM36.5 3L30 2.998V14.754L35.6573 11.8014C36.4826 11.3704 37 10.5165 37 9.58542V3.5C37 3.22386 36.7761 3 36.5 3Z" fill="#FC4C02"></path>
  </symbol>

 <symbol fill="none" xmlns="http://www.w3.org/2000/svg" viewBox="0 0 18 18" id="contact">
    <g clip-path="url(#clip0_1558_8643)">
      <path d="M15.3626 2.63459C11.8474 -0.879592 6.1489 -0.878748 2.63471 2.63652C-0.87947 6.1518 -0.878626 11.8503 2.63665 15.3645C6.15192 18.8786 11.8504 18.8778 15.3646 15.3625C17.0523 13.6743 18.0002 11.3847 17.9996 8.99759C17.9992 6.61083 17.0506 4.32202 15.3626 2.63459ZM13.6298 12.5364C13.6294 12.5368 13.6291 12.5372 13.6286 12.5376V12.5346L13.1726 12.9876C12.5829 13.5848 11.724 13.8305 10.9076 13.6356C10.0851 13.4155 9.30326 13.065 8.59162 12.5976C7.93047 12.1751 7.31777 11.6811 6.76462 11.1246C6.25567 10.6194 5.79842 10.0646 5.39961 9.46861C4.96339 8.82729 4.61812 8.12867 4.37361 7.3926C4.09331 6.5279 4.32559 5.57907 4.97362 4.94162L5.50761 4.40763C5.65608 4.25849 5.89732 4.25797 6.04642 4.40643C6.0468 4.40682 6.04722 4.4072 6.04761 4.40763L7.7336 6.09362C7.88273 6.24208 7.88326 6.48332 7.7348 6.63242C7.73441 6.63281 7.73402 6.63319 7.7336 6.63362L6.7436 7.62362C6.45954 7.90458 6.42382 8.35107 6.65961 8.67363C7.01768 9.16504 7.41392 9.62745 7.84462 10.0566C8.32482 10.5389 8.84686 10.9776 9.40461 11.3676C9.72689 11.5924 10.1638 11.5545 10.4426 11.2776L11.3996 10.3056C11.5481 10.1565 11.7893 10.156 11.9384 10.3045C11.9388 10.3048 11.9392 10.3052 11.9396 10.3056L13.6286 11.9976C13.7778 12.1461 13.7783 12.3873 13.6298 12.5364Z" fill="#FC4C02"></path>
    </g>
    <defs>
      <clipPath id="clip0_1558_8643">
        <rect width="18" height="18" fill="white"></rect>
      </clipPath>
    </defs>
  </symbol>

<symbol fill="none" xmlns="http://www.w3.org/2000/svg" viewBox="0 0 10 13" id="location">
    <path d="M4.99532 0C2.6697 0 0.779785 2.04902 0.779785 4.57031C0.779785 5.42343 0.997623 6.25374 1.41214 6.96975L4.70955 12.8201C4.7658 12.9191 4.85012 12.9801 4.94851 12.9953C5.08195 13.0182 5.22956 12.9572 5.30683 12.8125L8.61368 6.90878C9.00708 6.20803 9.21085 5.393 9.21085 4.57031C9.21085 2.04902 7.32093 0 4.99532 0ZM4.99532 6.85547C3.81501 6.85547 2.88755 5.81953 2.88755 4.57031C2.88755 3.31345 3.83602 2.28515 4.99532 2.28515C6.15462 2.28515 7.10308 3.31345 7.10308 4.57031C7.10308 5.81191 6.18969 6.85547 4.99532 6.85547Z" fill="white"></path>
  </symbol>
 <symbol fill="none" xmlns="http://www.w3.org/2000/svg" viewBox="0 0 12 13" id="phone">
    <path d="M11.6735 9.54069L9.99885 7.7265C9.40077 7.07857 8.38402 7.33777 8.14479 8.18005C7.96537 8.7632 7.36728 9.08717 6.82901 8.95756C5.63284 8.63359 4.01801 6.94899 3.71897 5.58835C3.53954 5.00519 3.89839 4.35727 4.43667 4.16291C5.21418 3.90374 5.45341 2.80227 4.85533 2.15435L3.18069 0.34016C2.70222 -0.113387 1.98452 -0.113387 1.56586 0.34016L0.429504 1.57122C-0.706856 2.86707 0.549121 6.30107 3.36012 9.34631C6.17111 12.3916 9.34096 13.817 10.5371 12.5211L11.6735 11.2901C12.0922 10.7717 12.0922 9.99424 11.6735 9.54069Z" fill="white"></path>
  </symbol>
    <symbol fill="none" xmlns="http://www.w3.org/2000/svg" viewBox="0 0 12 11" id="email">
    <g clip-path="url(#clip0_1552_9430)">
      <path d="M6.34219 7.20685C6.22894 7.28685 6.10153 7.31885 5.98828 7.31885C5.87502 7.31885 5.74761 7.28685 5.63436 7.20685L0 3.31885V8.48685C0 9.59085 0.792774 10.4869 1.76959 10.4869H10.2211C11.1979 10.4869 11.9907 9.59085 11.9907 8.48685V3.31885L6.34219 7.20685Z" fill="white"></path>
      <path d="M10.2211 0.50293H1.7696C0.934355 0.50293 0.226521 1.17493 0.0566406 2.07093L6.00245 6.16693L11.9341 2.07093C11.7642 1.17493 11.0564 0.50293 10.2211 0.50293Z" fill="white"></path>
    </g>
    <defs>
      <clipPath id="clip0_1552_9430">
        <rect width="12" height="10" fill="white" transform="translate(0 0.5)"></rect>
      </clipPath>
    </defs>
  </symbol>
</svg>  

