<svg width="0" height="0" class="hidden">
  <symbol    xmlns="http://www.w3.org/2000/svg" viewBox="0 0 16 16" id="search">
    <path d="M11.7422 10.3439C12.5329 9.2673 13 7.9382 13 6.5C13 2.91015 10.0899 0 6.5 0C2.91015 0 0 2.91015 0 6.5C0 10.0899 2.91015 13 6.5 13C7.93858 13 9.26801 12.5327 10.3448 11.7415L10.3439 11.7422C10.3734 11.7822 10.4062 11.8204 10.4424 11.8566L14.2929 15.7071C14.6834 16.0976 15.3166 16.0976 15.7071 15.7071C16.0976 15.3166 16.0976 14.6834 15.7071 14.2929L11.8566 10.4424C11.8204 10.4062 11.7822 10.3734 11.7422 10.3439ZM12 6.5C12 9.53757 9.53757 12 6.5 12C3.46243 12 1 9.53757 1 6.5C1 3.46243 3.46243 1 6.5 1C9.53757 1 12 3.46243 12 6.5Z" ></path>
  </symbol>
  <symbol   xmlns="http://www.w3.org/2000/svg" viewBox="0 0 16 16" id="list">
    <path fill-rule="evenodd" clip-rule="evenodd" d="M2.5 11.5C2.5 11.2239 2.72386 11 3 11H13C13.2761 11 13.5 11.2239 13.5 11.5C13.5 11.7761 13.2761 12 13 12H3C2.72386 12 2.5 11.7761 2.5 11.5Z" ></path>
    <path fill-rule="evenodd" clip-rule="evenodd" d="M2.5 7.5C2.5 7.22386 2.72386 7 3 7H13C13.2761 7 13.5 7.22386 13.5 7.5C13.5 7.77614 13.2761 8 13 8H3C2.72386 8 2.5 7.77614 2.5 7.5Z" ></path>
    <path fill-rule="evenodd" clip-rule="evenodd" d="M2.5 3.5C2.5 3.22386 2.72386 3 3 3H13C13.2761 3 13.5 3.22386 13.5 3.5C13.5 3.77614 13.2761 4 13 4H3C2.72386 4 2.5 3.77614 2.5 3.5Z" ></path>
  </symbol>
   <symbol  xmlns="http://www.w3.org/2000/svg" viewBox="0 0 16 16" id="x">
    <path d="M2.14645 2.85355C1.95118 2.65829 1.95118 2.34171 2.14645 2.14645C2.34171 1.95118 2.65829 1.95118 2.85355 2.14645L8 7.29289L13.1464 2.14645C13.3417 1.95118 13.6583 1.95118 13.8536 2.14645C14.0488 2.34171 14.0488 2.65829 13.8536 2.85355L8.70711 8L13.8536 13.1464C14.0488 13.3417 14.0488 13.6583 13.8536 13.8536C13.6583 14.0488 13.3417 14.0488 13.1464 13.8536L8 8.70711L2.85355 13.8536C2.65829 14.0488 2.34171 14.0488 2.14645 13.8536C1.95119 13.6583 1.95119 13.3417 2.14645 13.1464L7.29289 8L2.14645 2.85355Z" ></path>
  </symbol>
  <symbol  xmlns="http://www.w3.org/2000/svg" viewBox="0 0 16 16" id="chevron-left">
    <path fill-rule="evenodd" clip-rule="evenodd" d="M11.3536 1.64645C11.5488 1.84171 11.5488 2.15829 11.3536 2.35355L5.70711 8L11.3536 13.6464C11.5488 13.8417 11.5488 14.1583 11.3536 14.3536C11.1583 14.5488 10.8417 14.5488 10.6464 14.3536L4.64645 8.35355C4.45118 8.15829 4.45118 7.84171 4.64645 7.64645L10.6464 1.64645C10.8417 1.45118 11.1583 1.45118 11.3536 1.64645Z" ></path>
  </symbol>
  <symbol  xmlns="http://www.w3.org/2000/svg" viewBox="0 0 16 16" id="chevron-right">
    <path fill-rule="evenodd" clip-rule="evenodd" d="M4.64645 1.64645C4.84171 1.45118 5.15829 1.45118 5.35355 1.64645L11.3536 7.64645C11.5488 7.84171 11.5488 8.15829 11.3536 8.35355L5.35355 14.3536C5.15829 14.5488 4.84171 14.5488 4.64645 14.3536C4.45118 14.1583 4.45118 13.8417 4.64645 13.6464L10.2929 8L4.64645 2.35355C4.45118 2.15829 4.45118 1.84171 4.64645 1.64645Z" ></path>
  </symbol>
  <symbol  xmlns="http://www.w3.org/2000/svg" viewBox="0 0 16 16" id="chevron-down">
    <path fill-rule="evenodd" clip-rule="evenodd" d="M1.64645 4.64645C1.84171 4.45118 2.15829 4.45118 2.35355 4.64645L8 10.2929L13.6464 4.64645C13.8417 4.45118 14.1583 4.45118 14.3536 4.64645C14.5488 4.84171 14.5488 5.15829 14.3536 5.35355L8.35355 11.3536C8.15829 11.5488 7.84171 11.5488 7.64645 11.3536L1.64645 5.35355C1.45118 5.15829 1.45118 4.84171 1.64645 4.64645Z" ></path>
  </symbol>



   <symbol version="1.1" xmlns="http://www.w3.org/2000/svg" xmlns:xlink="http://www.w3.org/1999/xlink" viewBox="0 0 64 64" id="stop">
    <title>gen-flag-6</title>
    <desc>Created with Sketch.</desc>
    <defs></defs>
    <g id="64px-Line" stroke="none" stroke-width="1" fill="none" fill-rule="evenodd">
      <g id="gen-flag-6"></g>
      <g id="Page-1" transform="translate(-168.000000, 4.000000)" fill="#000000">
        <path d="M201.4141,30 L203.7061,27.708 C203.7991,27.615 203.8721,27.505 203.9231,27.382 C203.9741,27.26 204.0001,27.13 204.0001,27 L204.0001,6 L216.9691,6 L208.2071,17.391 C207.9311,17.75 207.9311,18.25 208.2071,18.609 L216.9691,30 L201.4141,30 Z M200.5861,28 L200.0001,28.586 L200.0001,28 L200.5861,28 Z M182.0001,26 L202.0001,26 L202.0001,2 L182.0001,2 L182.0001,26 Z M210.2621,18 L219.7931,5.609 C220.0251,5.308 220.0651,4.9 219.8971,4.559 C219.7281,4.217 219.3811,4 219.0001,4 L204.0001,4 L204.0001,1 C204.0001,0.447 203.5531,0 203.0001,0 L181.0001,0 C180.4471,0 180.0001,0.447 180.0001,1 L180.0001,27 L180.0001,55 C180.0001,55.553 180.4471,56 181.0001,56 C181.5531,56 182.0001,55.553 182.0001,55 L182.0001,28 L198.0001,28 L198.0001,31 C198.0001,31.013 198.0071,31.023 198.0081,31.036 C198.0121,31.153 198.0291,31.271 198.0761,31.383 C198.0761,31.384 198.0771,31.385 198.0781,31.386 C198.0821,31.395 198.0891,31.401 198.0931,31.411 C198.1381,31.511 198.1991,31.598 198.2711,31.676 C198.2951,31.701 198.3211,31.721 198.3481,31.744 C198.4111,31.8 198.4801,31.847 198.5561,31.885 C198.5881,31.9 198.6171,31.917 198.6501,31.93 C198.7621,31.971 198.8771,32 199.0001,32 L219.0001,32 C219.3811,32 219.7281,31.783 219.8971,31.441 C220.0651,31.1 220.0251,30.692 219.7931,30.391 L210.2621,18 Z" id="Fill-1"></path>
      </g>
    </g>
  </symbol>

 <symbol version="1.1" xmlns="http://www.w3.org/2000/svg" xmlns:xlink="http://www.w3.org/1999/xlink" viewBox="0 0 64 64" id="start">
    <title>spe-translate-2</title>
    <desc>Created with Sketch.</desc>
    <defs></defs>
    <g id="64px-Glyph" stroke="none" stroke-width="1" fill="none" fill-rule="evenodd">
      <g id="spe-translate-2" fill="#000000">
        <path d="M10.618,46 L15,37.236 L19.382,46 L10.618,46 Z M25.895,54.553 L15.895,34.553 C15.555,33.875 14.445,33.875 14.106,34.553 L4.106,54.553 C3.858,55.047 4.059,55.648 4.553,55.895 C5.046,56.142 5.647,55.942 5.895,55.447 L9.618,48 L20.382,48 L24.106,55.447 C24.281,55.798 24.634,56.001 25.001,56 C25.151,56 25.304,55.966 25.447,55.895 C25.941,55.648 26.142,55.047 25.895,54.553 L25.895,54.553 Z" id="Fill-85"></path>
        <path d="M47,10 L43,10 C42.447,10 42,9.552 42,9 C42,8.448 42.447,8 43,8 L47,8 C47.553,8 48,8.448 48,9 C48,9.552 47.553,10 47,10" id="Fill-87"></path>
        <path d="M57,12 L33,12 C32.447,12 32,12.448 32,13 C32,13.552 32.447,14 33,14 L49.938,14 C49.598,16.894 47.857,20.686 44.977,23.594 C42.961,21.569 41.484,19.088 40.674,16.687 C40.498,16.164 39.932,15.881 39.407,16.059 C38.884,16.235 38.602,16.803 38.779,17.326 C39.667,19.961 41.285,22.68 43.493,24.922 C41.185,26.757 38.324,28 35,28 C34.447,28 34,28.448 34,29 C34,29.552 34.447,30 35,30 C38.898,30 42.294,28.509 45.005,26.292 C47.712,28.506 51.097,30 55,30 C55.553,30 56,29.552 56,29 C56,28.448 55.553,28 55,28 C51.71,28 48.832,26.776 46.493,24.935 C49.674,21.717 51.629,17.514 51.949,14 L57,14 C57.553,14 58,13.552 58,13 C58,12.448 57.553,12 57,12" id="Fill-89"></path>
        <path d="M49.707,38.293 L45.708,34.294 C45.615,34.201 45.505,34.128 45.382,34.077 C45.138,33.976 44.862,33.976 44.618,34.077 C44.495,34.128 44.385,34.201 44.292,34.294 L40.293,38.293 C39.902,38.684 39.902,39.316 40.293,39.707 C40.684,40.098 41.316,40.098 41.707,39.707 L44,37.414 L44,39 C44,45.065 39.065,50 33,50 C32.447,50 32,50.448 32,51 C32,51.552 32.447,52 33,52 C40.168,52 46,46.169 46,39 L46,37.414 L48.293,39.707 C48.488,39.902 48.744,40 49,40 C49.256,40 49.512,39.902 49.707,39.707 C50.098,39.316 50.098,38.684 49.707,38.293" id="Fill-91"></path>
        <path d="M27,12 C19.832,12 14,17.831 14,25 L14,26.586 L11.707,24.293 C11.316,23.902 10.684,23.902 10.293,24.293 C9.902,24.684 9.902,25.316 10.293,25.707 L14.292,29.706 C14.385,29.799 14.495,29.872 14.618,29.923 C14.74,29.973 14.87,30 15,30 C15.13,30 15.26,29.973 15.382,29.923 C15.505,29.872 15.615,29.799 15.708,29.706 L19.707,25.707 C20.098,25.316 20.098,24.684 19.707,24.293 C19.316,23.902 18.684,23.902 18.293,24.293 L16,26.586 L16,25 C16,18.935 20.935,14 27,14 C27.553,14 28,13.552 28,13 C28,12.448 27.553,12 27,12" id="Fill-93"></path>
      </g>
    </g>
  </symbol>
  
</svg>  

